<svg id="Calque_1" data-name="Calque 1" xmlns="http://www.w3.org/2000/svg" viewBox="0 0 51 51"><defs><style>.cls-1{fill:#282658;}.cls-2{fill:#f08e63;}</style></defs><title>Plan de travail 3 copie 8</title><path class="cls-1" d="M10.33-14.59c.15.15.47.57,1,1.26s1.12,1.56,1.85,2.59l2.41,3.43C16.45-6,17.34-4.74,18.24-3.4S20-.72,20.87.58s1.61,2.49,2.28,3.56v-17A2.46,2.46,0,0,1,24-15a4.1,4.1,0,0,1,2.41-.63,6.21,6.21,0,0,1,1.89.26c.54.18.88.29,1,.35V14.22H23.19q-1.52-2.34-3.43-5.28C18.49,7,17.21,5.06,15.94,3.17S13.45-.51,12.31-2.18s-2.08-3-2.8-4V14.22H3.34V-12.46a3.27,3.27,0,0,1,.21-1.13,3.27,3.27,0,0,1,.65-1,3.31,3.31,0,0,1,1.13-.74,4.45,4.45,0,0,1,1.61-.28,5.27,5.27,0,0,1,2.17.37A8.88,8.88,0,0,1,10.33-14.59Z"/><path class="cls-1" d="M65.19,10.53c-.59-1.53-1.25-3.23-2-5.08s-1.49-3.78-2.3-5.76S59.3-4.21,58.5-6s-1.56-3.52-2.28-5-1.35-2.73-1.87-3.63a5.8,5.8,0,0,0-1.24-.82A5.56,5.56,0,0,0,50.53-16a5.21,5.21,0,0,0-2.83.74,6.4,6.4,0,0,0-2.13,2.78c-.29.58-.67,1.41-1.15,2.48s-1,2.31-1.63,3.71-1.27,2.95-2,4.63l-1,2.4A17.29,17.29,0,0,1,36.56.59l-.31,0A6.15,6.15,0,0,1,33.81-.79h0V5.7a7.57,7.57,0,0,0,2.11.5c.52.07,1.05.11,1.57.14L36.42,8.92q-1.1,2.74-2.06,5.3h6.39l1-2.56L44,6c.82-.1,1.63-.22,2.44-.33,3.52-.51,6.88-1,10-.43l2.12,5.4.42,1c.42,1.06.75,1.91,1,2.54H66.6C66.26,13.3,65.78,12.07,65.19,10.53ZM46.37,0,47-1.53c.55-1.34,1-2.58,1.5-3.71s.84-2.1,1.17-2.91.58-1.37.72-1.66c.12.32.34.89.68,1.7l1.19,2.89c.46,1.11,1,2.35,1.5,3.69l.34.86A47.12,47.12,0,0,0,46.37,0Z"/><path class="cls-2" d="M0,29.9l-.23-4.18L-1,27.27c-.23.49-.48,1-.73,1.52h-.84c-.12-.26-.25-.52-.39-.8s-.26-.54-.38-.81-.25-.53-.36-.78-.22-.47-.31-.68l-.23,4.18H-5.48l.28-5.28A.72.72,0,0,1-5,24.1a.85.85,0,0,1,.54-.17,1.54,1.54,0,0,1,.52.08,1.53,1.53,0,0,1,.3.13q.17.36.36.75c.12.26.25.52.38.79s.25.54.38.81.26.53.4.78l.71-1.42c.22-.47.44-.92.63-1.35a1.09,1.09,0,0,1,.32-.43,1,1,0,0,1,.55-.14A1.6,1.6,0,0,1,.64,24l.25.12.33,5.77Z"/><path class="cls-2" d="M4.69,27.45V28.8H7.63v1.1H3.44V24.61a.61.61,0,0,1,.7-.68H7.08a.63.63,0,0,1,.46.14.57.57,0,0,1,.13.4,1,1,0,0,1-.06.36.72.72,0,0,1-.09.21H4.69v1.31H7a.59.59,0,0,1,.46.14.54.54,0,0,1,.13.4,1,1,0,0,1-.06.35.73.73,0,0,1-.09.21Z"/><path class="cls-2" d="M18.19,26.91A3.24,3.24,0,0,1,18,28.14a2.68,2.68,0,0,1-.63.94,3.05,3.05,0,0,1-1,.61A3.89,3.89,0,0,1,15,29.9H12.81V24.61a.61.61,0,0,1,.7-.68H15a4.38,4.38,0,0,1,1.11.12,2.6,2.6,0,0,1,.9.38,2.34,2.34,0,0,1,.67.62,3,3,0,0,1,.42.84A3.75,3.75,0,0,1,18.19,26.91Zm-1.3,0a2.26,2.26,0,0,0-.3-1.17,1.63,1.63,0,0,0-1-.68,1.61,1.61,0,0,0-.33-.06,2.23,2.23,0,0,0-.37,0h-.85v3.88H15a1.92,1.92,0,0,0,.83-.16,1.7,1.7,0,0,0,1-1A2.43,2.43,0,0,0,16.89,26.91Z"/><path class="cls-2" d="M19.36,29.9c.13-.34.27-.7.42-1.06s.29-.73.44-1.08l.43-1,.4-.92.32-.75c.1-.21.18-.37.23-.49A1.31,1.31,0,0,1,22,24a1.11,1.11,0,0,1,.56-.14,1.18,1.18,0,0,1,.52.09,1.3,1.3,0,0,1,.25.17c.1.18.22.42.37.72s.3.64.46,1,.32.75.48,1.14l.46,1.16.39,1c.12.31.22.55.28.74H24.47c0-.13-.11-.3-.2-.51l-.3-.76H21.13c-.11.3-.21.55-.29.76l-.2.51Zm3.2-4.8a3.57,3.57,0,0,0-.14.33c-.07.16-.15.35-.24.58l-.3.74-.32.8h2c-.11-.26-.21-.53-.32-.8l-.3-.74-.24-.57Z"/><path class="cls-2" d="M30.58,23.93a.63.63,0,0,1,.46.14.57.57,0,0,1,.13.4,1,1,0,0,1-.06.36A1.16,1.16,0,0,1,31,25H29.08V29.9H27.82V25H26.44A.63.63,0,0,1,26,24.9a.55.55,0,0,1-.13-.4,1,1,0,0,1,.06-.36.72.72,0,0,1,.09-.21Z"/><path class="cls-2" d="M31.21,29.9l.41-1.06q.22-.56.45-1.08c.14-.36.29-.7.43-1s.27-.64.4-.92.22-.53.32-.75l.23-.49a1.31,1.31,0,0,1,.43-.56,1.08,1.08,0,0,1,.56-.14A1.18,1.18,0,0,1,35,24a1.3,1.3,0,0,1,.25.17c.1.18.22.42.37.72s.29.64.45,1L36.52,27,37,28.15l.39,1,.28.74H36.32l-.2-.51-.3-.76H33c-.11.3-.21.55-.29.76l-.2.51Zm3.2-4.8-.15.33L34,26l-.3.74-.32.8h2c-.11-.26-.21-.53-.32-.8l-.3-.74-.24-.57C34.47,25.28,34.43,25.16,34.41,25.1Z"/><path class="cls-2" d="M45.83,25.44a2.06,2.06,0,0,0-.21-.21,1.33,1.33,0,0,0-.33-.21,2,2,0,0,0-.49-.17,2.54,2.54,0,0,0-.65-.07,1.83,1.83,0,0,0-.51.06.74.74,0,0,0-.32.16.56.56,0,0,0-.17.24.75.75,0,0,0,0,.26.63.63,0,0,0,.19.43,1.41,1.41,0,0,0,.66.29l.74.16a4.66,4.66,0,0,1,.77.24,2,2,0,0,1,.6.34,1.51,1.51,0,0,1,.38.49,1.59,1.59,0,0,1,.14.68,2.13,2.13,0,0,1-.14.78,1.65,1.65,0,0,1-.43.61,2.22,2.22,0,0,1-.75.39,3.78,3.78,0,0,1-1.08.14,5.13,5.13,0,0,1-1-.1,5.24,5.24,0,0,1-.75-.23,3.44,3.44,0,0,1-.48-.25l-.21-.15.59-.91a1.1,1.1,0,0,0,.17.14,3.19,3.19,0,0,0,.39.22,3.14,3.14,0,0,0,.57.2,2.59,2.59,0,0,0,.76.1,2.21,2.21,0,0,0,.57-.07.83.83,0,0,0,.34-.17.56.56,0,0,0,.17-.24.93.93,0,0,0,0-.29.61.61,0,0,0-.27-.52,1.76,1.76,0,0,0-.74-.29l-.82-.17a3.22,3.22,0,0,1-.58-.18,1.82,1.82,0,0,1-.53-.33,1.51,1.51,0,0,1-.37-.49,1.48,1.48,0,0,1-.15-.68,1.94,1.94,0,0,1,.14-.73,1.49,1.49,0,0,1,.42-.58,2.12,2.12,0,0,1,.71-.4,3.37,3.37,0,0,1,1-.14,4,4,0,0,1,.74.05,3.19,3.19,0,0,1,.54.11,2.65,2.65,0,0,1,.35.13l.21.11a.88.88,0,0,1,.25.26.54.54,0,0,1,.09.28.6.6,0,0,1-.06.27.77.77,0,0,1-.14.21.52.52,0,0,1-.16.14Z"/><path class="cls-2" d="M54.53,26.91a3.34,3.34,0,0,1-.23,1.24,2.86,2.86,0,0,1-1.61,1.66,3.3,3.3,0,0,1-1.27.24,3.27,3.27,0,0,1-1.27-.24,2.86,2.86,0,0,1-1.61-1.66,3.34,3.34,0,0,1-.23-1.24,3.37,3.37,0,0,1,.23-1.24,3,3,0,0,1,.63-1,2.9,2.9,0,0,1,1-.65,3.27,3.27,0,0,1,1.27-.24,3.3,3.3,0,0,1,1.27.24,2.9,2.9,0,0,1,1,.65,3,3,0,0,1,.63,1A3.37,3.37,0,0,1,54.53,26.91Zm-1.31,0a2.71,2.71,0,0,0-.12-.82,1.9,1.9,0,0,0-.36-.66,1.71,1.71,0,0,0-.56-.43,2,2,0,0,0-1.51,0,1.86,1.86,0,0,0-.57.43,1.75,1.75,0,0,0-.36.66,2.71,2.71,0,0,0-.13.82,2.66,2.66,0,0,0,.13.82,1.92,1.92,0,0,0,.36.66,1.62,1.62,0,0,0,.57.44,1.86,1.86,0,0,0,1.51,0,1.5,1.5,0,0,0,.56-.44,2.11,2.11,0,0,0,.36-.66A2.66,2.66,0,0,0,53.22,26.91Z"/></svg>