<svg id="Calque_1" data-name="Calque 1" xmlns="http://www.w3.org/2000/svg" viewBox="0 0 51 51"><defs><style>.cls-1{fill:#282658;}</style></defs><title>Plan de travail 3 copie 3</title><path class="cls-1" d="M33.38,54.05a.92.92,0,0,0-1-.72l-1.3-3.07a.93.93,0,0,0,.19-.76.89.89,0,0,0-.35-.53l.48-3.13a.91.91,0,0,0-.25-1.76l-2.31-5a1.53,1.53,0,0,0,.5-1.47,1.54,1.54,0,0,0-1.83-1.19,1.32,1.32,0,0,0-.39.15l-5.56-5.68a1.52,1.52,0,0,0,.17-1.07,1.54,1.54,0,0,0-1.82-1.19,1.56,1.56,0,0,0-.75.4L10.53,24.1a1.3,1.3,0,0,0,0-.44,1.23,1.23,0,0,0-1.46-.95,1.18,1.18,0,0,0-.8.58L-.32,21.82c0-.05,0-.1,0-.15a1.54,1.54,0,0,0-1.82-1.19,1.54,1.54,0,0,0-1.18,1.17l-6.6.4a.91.91,0,0,0-1-.42.92.92,0,0,0-.63.5l-6.24.27a1.54,1.54,0,0,0-1.77-1,1.54,1.54,0,0,0-.79.44l-7.7-4a1.4,1.4,0,0,0,0-.61,1.53,1.53,0,0,0-1.82-1.19A1.53,1.53,0,0,0-31,17.12H-39.1a1.21,1.21,0,0,0-1.38-.77,1.23,1.23,0,0,0-1,1.46,1.23,1.23,0,0,0,1.46,1l.12-.05,2.77,3.39a.88.88,0,0,0-.07.53.9.9,0,0,0,.4.58l-.33,3.34h0a1.53,1.53,0,0,0-1.19,1.82,1.37,1.37,0,0,0,.18.45l-3.59,3.76a1.54,1.54,0,0,0-1-.15,1.56,1.56,0,0,0-1.19,1.83,1.61,1.61,0,0,0,.12.33l-6.27,5.56a.84.84,0,0,0-.5,0,.92.92,0,0,0-.71,1.09s0,0,0,0l-5.54,5a1.55,1.55,0,0,0-1.12-.2,1.54,1.54,0,0,0-1.19,1.83,1.3,1.3,0,0,0,.21.5l-6.1,7a.9.9,0,0,0-.4,0,.92.92,0,0,0-.72,1.09,1.36,1.36,0,0,0,.13.3L-70.66,65a1.83,1.83,0,0,0-.66,0,1.55,1.55,0,0,0-1.21,1.7l-7.26,3.17a1.53,1.53,0,0,0-1.49-.52,1.54,1.54,0,0,0-1.21,1.68l-3.88,1.66a.9.9,0,0,0-.76-.19.91.91,0,0,0-.71,1.09s0,.06,0,.1l-3.76,4a1.19,1.19,0,0,0-.7-.08,1.23,1.23,0,0,0-.95,1.46,1.23,1.23,0,0,0,1.45,1,1.22,1.22,0,0,0,1-1l7-1.42a.93.93,0,0,0,.89.32.92.92,0,0,0,.66-.58l6.41-.84a1.2,1.2,0,0,0,1.32.63,1.1,1.1,0,0,0,.61-.37L-68.55,79a1.93,1.93,0,0,0,0,.48,1.54,1.54,0,0,0,1.82,1.19,1.53,1.53,0,0,0,1.19-1.82,1.5,1.5,0,0,0-.49-.83l1.58-3.38h.13a.94.94,0,0,0,.72-1.1.91.91,0,0,0-.81-.71l-1.39-3.41a.87.87,0,0,0,.2-.75L-57.22,62a1.48,1.48,0,0,0,1.2.25,1.52,1.52,0,0,0,1.19-1.75l8.94-4.34a1.52,1.52,0,0,0,1.45.48,1.55,1.55,0,0,0,1.23-1.5l8.71-2.53a1.21,1.21,0,0,0,1.23.47,1.21,1.21,0,0,0,1-1l7.23-1.6a1.55,1.55,0,0,0,1.66.76,1.55,1.55,0,0,0,1.21-1.36l7.91-1.56a.9.9,0,0,0,.9.32.9.9,0,0,0,.66-.59l6.08-.92a1.79,1.79,0,0,0,.22.34l-1.48,2.26h-.26a.92.92,0,0,0-.71,1.1h0L-11.44,53a1.14,1.14,0,0,0-.66-.07,1.23,1.23,0,0,0-1,1.46,1.24,1.24,0,0,0,1.46,1,1.2,1.2,0,0,0,.88-.78l6.06.4a.93.93,0,0,0,1,.53.92.92,0,0,0,.71-.8L3.91,52a.89.89,0,0,0,.77.22.92.92,0,0,0,.72-.94l5.65-3.37a1.54,1.54,0,0,0,1.37.38,1.45,1.45,0,0,0,.85-.52l8.85,3.84a1.14,1.14,0,0,0,0,.32,1.23,1.23,0,0,0,1.46,1,1.13,1.13,0,0,0,.39-.17l5.33,4.07a1,1,0,0,0,0,.34.92.92,0,0,0,1.81-.38.52.52,0,0,0-.06-.13l1.27-1.48a.83.83,0,0,0,.35,0A.91.91,0,0,0,33.38,54.05ZM30,56l-.17.08L24.49,52a1.26,1.26,0,0,0,0-.58l5-1.42a.88.88,0,0,0,.75.56l1.36,3.23a1,1,0,0,0-.09.6,1.3,1.3,0,0,0,.08.17L30.4,56A.85.85,0,0,0,30,56ZM5,50.54a.86.86,0,0,0-.55-.12L3.29,45.07a.92.92,0,0,0,.61-1,.93.93,0,0,0-.72-.72l.44-5.38.34,0a1.36,1.36,0,0,0,.56-.25l6.53,8a1.53,1.53,0,0,0-.46,1.43.14.14,0,0,1,0,.07Zm-8.22,3.35a.85.85,0,0,0-.63-.21l-1-5.76a1.52,1.52,0,0,0,1-.7L3.64,51a1.05,1.05,0,0,0-.05.19Zm-7.48-.2,0-.12,2.46-2.12a.88.88,0,0,0,.51,0,.92.92,0,0,0,.72-1.09.88.88,0,0,0-.11-.24l1.48-2.27a1.5,1.5,0,0,0,.6.06l1,5.75a.9.9,0,0,0-.51.38Zm-2.14-6.54a.9.9,0,0,0-.92-.35.36.36,0,0,0-.11,0l-4.55-9.14a1.43,1.43,0,0,0,.6-.64l7.39,3a.88.88,0,0,0,0,.43.91.91,0,0,0,1.09.71,1,1,0,0,0,.24-.1l2.9,4.14a1.55,1.55,0,0,0-.55,1ZM-22.39,49a1.52,1.52,0,0,0-.76-.7l3.54-10.41a1.5,1.5,0,0,0,.7,0l.27-.08,4.53,9.12a1,1,0,0,0-.36.5ZM-43.46,54.3a1.5,1.5,0,0,0-.73-.61l2.49-8a1.47,1.47,0,0,0,.66,0,1.39,1.39,0,0,0,.7-.36l5.87,5.75a1.29,1.29,0,0,0-.27.67ZM-65.39,73.6l-3.26-.22a.75.75,0,0,0,0-.15.92.92,0,0,0-1-.71l-1-4.52a1.45,1.45,0,0,0,.89-.67l2.37,1.24a.87.87,0,0,0,0,.51.89.89,0,0,0,.8.71l1.39,3.41A.8.8,0,0,0-65.39,73.6Zm-17,2.9a.8.8,0,0,0-.35-.28l1.36-3.86a1.46,1.46,0,0,0,.72,0,1.47,1.47,0,0,0,.8-.44l4,3.31a1.35,1.35,0,0,0-.18.41Zm-3.65-3,3.88-1.66a1.62,1.62,0,0,0,.57.44l-1.35,3.84a1,1,0,0,0-.39,0,.91.91,0,0,0-.39.2L-86.2,74A1.07,1.07,0,0,0-86,73.51Zm11,1.23a1.19,1.19,0,0,0-.61.36l-4-3.33a1.63,1.63,0,0,0,.27-1.08l7.26-3.17a1.55,1.55,0,0,0,1.38.53l1,4.51a.92.92,0,0,0-.61,1,1,1,0,0,0,0,.1l-3.34,1.61A1.22,1.22,0,0,0-75.06,74.74Zm41.59-38.38s.07,0,.1,0l2.93,6.06a1.18,1.18,0,0,0-.58,1l-8.82.61a.41.41,0,0,0,0-.11,1.49,1.49,0,0,0-.41-.76l6.08-6.91A.88.88,0,0,0-33.47,36.36ZM3.72,50.82-3.86,47a1.54,1.54,0,0,0,.09-.88l5.93-1.59a.89.89,0,0,0,.92.56L4.2,50.46A.92.92,0,0,0,3.72,50.82ZM-8.75,40.67,2.09,44a1,1,0,0,0,0,.3l-5.92,1.59a1.54,1.54,0,0,0-1.77-1,1.29,1.29,0,0,0-.47.19L-9,41A.84.84,0,0,0-8.75,40.67ZM3,43.3H2.81a.94.94,0,0,0-.64.54L-8.67,40.47a1.22,1.22,0,0,0,0-.33L2.2,36.92a1.54,1.54,0,0,0,1.21,1Zm-.83-6.6v0L-8.75,39.94a.91.91,0,0,0-.51-.49l2-8.08a1.09,1.09,0,0,0,.44,0,1.21,1.21,0,0,0,.75-.5l8.32,4.84A1.59,1.59,0,0,0,2.13,36.7Zm-9.59-5.39-2,8.08a1.07,1.07,0,0,0-.31,0,.94.94,0,0,0-.61.47l-7.39-3a1.51,1.51,0,0,0,.05-.79,1.4,1.4,0,0,0-.09-.29l9.72-5A1.23,1.23,0,0,0-7.46,31.31ZM-19.82,37.8l-3.54,10.41a1.54,1.54,0,0,0-.71,0,1.42,1.42,0,0,0-.66.33l-4.17-4.31a1.21,1.21,0,0,0,.29-1,1.36,1.36,0,0,0-.14-.33l8.31-5.52A1.53,1.53,0,0,0-19.82,37.8Zm-14,12.86a1.22,1.22,0,0,0-.54.28l-5.87-5.74a1.48,1.48,0,0,0,.37-1l8.8-.6v.07a1.22,1.22,0,0,0,.62.81l-2.74,6.23A1.16,1.16,0,0,0-33.78,50.66Zm-9.08-6.14a1.63,1.63,0,0,0,.2.49l-8.77,6.24a1,1,0,0,0-.42-.26l1.45-9.08a1.62,1.62,0,0,0,.22,0,.92.92,0,0,0,.63-.5l6.72,2.39A1.46,1.46,0,0,0-42.86,44.52ZM-63.06,62a.9.9,0,0,0-.94-.61l-.92-4.36a.92.92,0,0,0,.47-.35l6.69,3.42a1.53,1.53,0,0,0-.1.8Zm6.68-2.84-1-10.17h.06a1.49,1.49,0,0,0,.82-.48l3.58,2.84a.91.91,0,0,0-.12.67.92.92,0,0,0,.41.58l-3.18,6.67A1.52,1.52,0,0,0-56.38,59.2Zm5.76-17.32L-52.07,51h-.22a.88.88,0,0,0-.45.26l-3.6-2.83a1.54,1.54,0,0,0,.24-1.19,2,2,0,0,0-.12-.34l5.55-5Zm-7,7.18,1,10.16h-.06a1.57,1.57,0,0,0-1,.71l-6.7-3.42a.84.84,0,0,0,0-.5s0-.08,0-.12l6.11-7A1.57,1.57,0,0,0-57.57,49.06Zm-7.66,8.06h.1l.91,4.35a.92.92,0,0,0-.61,1.05.92.92,0,0,0,.48.62L-66.25,68a.85.85,0,0,0-.42,0,.93.93,0,0,0-.57.39l-2.36-1.23a1.47,1.47,0,0,0,.1-.93,1.5,1.5,0,0,0-.41-.75ZM-66,67.94l1.84-4.72a1,1,0,0,0,.42,0,.92.92,0,0,0,.71-1l5.21-1.09a1,1,0,0,0,.05.16Zm10.41-8.54,3.19-6.67a1,1,0,0,0,.48,0,.93.93,0,0,0,.71-1.09.71.71,0,0,0-.11-.25l8.77-6.25a1.43,1.43,0,0,0,.63.46l-2.49,8a1.51,1.51,0,0,0-.67,0,1.54,1.54,0,0,0-1.2,1.76l-8.93,4.33A1.91,1.91,0,0,0-55.58,59.4Zm22.64-8.6,2.74-6.23a1.25,1.25,0,0,0,.64.06,1.18,1.18,0,0,0,.51-.26l4.16,4.3a1.48,1.48,0,0,0-.39.92l-7.22,1.6A1.27,1.27,0,0,0-32.94,50.8Zm45.32-5.52,1-8.91a.55.55,0,0,0,.18,0,.89.89,0,0,0,.4-.2l6.55,6.15a1.25,1.25,0,0,0-.25,1l0,.09-6.86,2.73A1.54,1.54,0,0,0,12.38,45.28Zm15.69-5.84,2.31,5a.91.91,0,0,0-.13.26l-7.53-1.51a1.16,1.16,0,0,0-.19-.82l4.2-3.4A1.5,1.5,0,0,0,28.07,39.44Zm-5.4,4,7.53,1.51a1.22,1.22,0,0,0,0,.27.88.88,0,0,0,.35.53l-.48,3.13a.91.91,0,0,0-.6,1l-5,1.42a1.19,1.19,0,0,0-1.27-.77l-1.32-6.26A1.21,1.21,0,0,0,22.67,43.4ZM-20.74,22.6a1.79,1.79,0,0,0,0,.61,1.53,1.53,0,0,0,1.82,1.19,1.51,1.51,0,0,0,1.17-1.13L-11.5,23a.93.93,0,0,0,1,.44.92.92,0,0,0,.63-.52l6.6-.41a1.54,1.54,0,0,0,1.76,1,1.51,1.51,0,0,0,1.06-.83l8.59,1.47s0,0,0,0a1.23,1.23,0,0,0,1.45,1,1.29,1.29,0,0,0,.52-.27l8.66,4.94a1.51,1.51,0,0,0,0,.67,1.55,1.55,0,0,0,1.82,1.19,1.59,1.59,0,0,0,.4-.16l5.55,5.69a1.59,1.59,0,0,0-.17,1.06,1.63,1.63,0,0,0,.25.57l-4.21,3.4a1.22,1.22,0,0,0-1.12-.36,1.27,1.27,0,0,0-.56.3L14.15,36a.91.91,0,0,0-.93-1.44.92.92,0,0,0,0,1.79l-1,8.91a1.71,1.71,0,0,0-.39,0,1.36,1.36,0,0,0-.56.25l-6.53-8a1.53,1.53,0,0,0,.46-1.43,1.55,1.55,0,0,0-1.83-1.19,1.49,1.49,0,0,0-.95.64L-6,30.68a1.27,1.27,0,0,0,.11-.77A1.24,1.24,0,0,0-7.31,29a1.23,1.23,0,0,0-1,1.46.84.84,0,0,0,.08.2l-9.73,5a1.54,1.54,0,0,0-1.63-.71,1.58,1.58,0,0,0-.64.3l-6.41-7a1.2,1.2,0,0,0,.32-1.06,1.24,1.24,0,0,0-1.46-1,1.23,1.23,0,0,0-.95,1.46,1.22,1.22,0,0,0,1.45.95,1.06,1.06,0,0,0,.49-.23l6.4,7a1.51,1.51,0,0,0-.39,1.37,1.55,1.55,0,0,0,.17.44l-8.3,5.52a1.23,1.23,0,0,0-1.21-.44,1.22,1.22,0,0,0-.17.07l-2.93-6.06a.9.9,0,0,0,.41-1,.91.91,0,0,0-1.09-.71.92.92,0,0,0-.72,1.09.91.91,0,0,0,.23.42L-40.43,43a1.55,1.55,0,0,0-1.24-.29,1.53,1.53,0,0,0-1.09.89l-6.71-2.38a.9.9,0,0,0,0-.4s0,0,0,0l6.25-5.55a1.55,1.55,0,0,0,1.14.21,1.55,1.55,0,0,0,1.19-1.83,1.57,1.57,0,0,0-.18-.44l3.58-3.76a1.49,1.49,0,0,0,1,.14,1.53,1.53,0,0,0,1.19-1.82,1.53,1.53,0,0,0-.93-1.11l.32-3.35a.92.92,0,0,0,.55-1,.91.91,0,0,0-1.08-.71l-2.75-3.37A1.34,1.34,0,0,0-39.1,18H-31a1.52,1.52,0,0,0,1.78,1.07,1.47,1.47,0,0,0,.8-.44ZM-87.17,74.3a.75.75,0,0,0,.42,0,.77.77,0,0,0,.39-.2l2.5,2.37a.82.82,0,0,0-.14.28l-6.76,1.38Zm19.83,3.4a1.45,1.45,0,0,0-.87.54L-73.6,76a1.41,1.41,0,0,0,0-.29,1.3,1.3,0,0,0-.08-.17l3.35-1.61a.9.9,0,0,0,1,.41.91.91,0,0,0,.72-.73l3.26.23a.66.66,0,0,0,0,.14.86.86,0,0,0,.17.36l-1.57,3.37A1.46,1.46,0,0,0-67.34,77.7Zm81-31.22a.88.88,0,0,1,0-.15l6.87-2.73a1.2,1.2,0,0,0,1.22.66L23,50.52a1.14,1.14,0,0,0-.51.32L13.62,47A1.68,1.68,0,0,0,13.61,46.48Z"/></svg>