<svg id="Calque_1" data-name="Calque 1" xmlns="http://www.w3.org/2000/svg" viewBox="0 0 51 51"><defs><style>.cls-1{fill:#282658;}.cls-2{fill:#f08e63;}</style></defs><title>Plan de travail 3 copie 9</title><path class="cls-1" d="M15.22-8.63a21.93,21.93,0,0,1-1.39-2.06,3.9,3.9,0,0,1-.61-2,3.86,3.86,0,0,1,.13-1,2.4,2.4,0,0,1,.48-.94,2.37,2.37,0,0,1,.91-.69,3.48,3.48,0,0,1,1.48-.26,5,5,0,0,1,2,.32,5.79,5.79,0,0,1,.86.46l1.05,1.61c.61.92,1.33,2,2.17,3.32S24-7.28,25-5.89s1.81,2.61,2.56,3.65c1.1-1.56,2.19-3.18,3.26-4.84s2.13-3.33,3.17-5c.35-.52.67-1,1-1.46a6.08,6.08,0,0,1,1-1.13,3.86,3.86,0,0,1,1.17-.71,3.94,3.94,0,0,1,1.52-.26,4.63,4.63,0,0,1,1.37.19,7.33,7.33,0,0,1,1.11.44,6.29,6.29,0,0,1,.78.45l.35.26-1,1.59c-.46.77-1,1.67-1.67,2.72S38.25-7.8,37.47-6.59,35.9-4.17,35.1-3,33.53-.65,32.77.43s-1.43,2-2,2.76v11h-6.6v-11Q22.95,1.72,21.67,0C20.82-1.07,20-2.17,19.19-3.24L17-6.26Q15.91-7.67,15.22-8.63Z"/><path class="cls-1" d="M14.2,10.54l-2-5.09c-.73-1.85-1.49-3.77-2.3-5.76S8.3-4.2,7.5-6,6-9.56,5.22-11.08s-1.34-2.73-1.87-3.63a5.64,5.64,0,0,0-1.23-.83A5.62,5.62,0,0,0-.47-16a5.19,5.19,0,0,0-2.82.73,6.29,6.29,0,0,0-2.13,2.79c-.29.57-.68,1.4-1.15,2.47S-7.6-7.71-8.2-6.3s-1.27,2.95-2,4.63l-1,2.39A17.4,17.4,0,0,1-14.44.59l-.3,0A6.51,6.51,0,0,1-17.19-.78h0V5.7a6.86,6.86,0,0,0,2.11.5c.52.07,1,.12,1.57.15-.36.86-.71,1.71-1.06,2.58q-1.11,2.73-2.06,5.3h6.38c.26-.67.6-1.52,1-2.56L-7,6l2.44-.34c3.52-.51,6.89-1,10-.42l2.13,5.39.42,1.06c.42,1.06.74,1.9,1,2.54h6.69Q15.09,12.84,14.2,10.54ZM-4.62,0-4-1.52q.83-2,1.5-3.72c.44-1.13.84-2.1,1.17-2.91s.57-1.36.72-1.65c.11.32.34.88.67,1.69S.76-6.33,1.22-5.22s1,2.35,1.5,3.7l.34.85A46.91,46.91,0,0,0-4.62,0Z"/><path class="cls-2" d="M3.53,26.92a3.37,3.37,0,0,1-.22,1.24,3,3,0,0,1-.64,1,2.92,2.92,0,0,1-1,.66,3.22,3.22,0,0,1-1.26.24,3.23,3.23,0,0,1-1.27-.24,2.92,2.92,0,0,1-1-.66,2.86,2.86,0,0,1-.64-1,3.37,3.37,0,0,1-.22-1.24,3.33,3.33,0,0,1,.22-1.24,2.69,2.69,0,0,1,.64-1,2.92,2.92,0,0,1,1-.66,3.23,3.23,0,0,1,1.27-.24A3.22,3.22,0,0,1,1.69,24a2.92,2.92,0,0,1,1,.66,2.82,2.82,0,0,1,.64,1A3.33,3.33,0,0,1,3.53,26.92Zm-1.3,0a2.49,2.49,0,0,0-.13-.83,1.93,1.93,0,0,0-.35-.65A1.51,1.51,0,0,0,1.18,25a1.65,1.65,0,0,0-.75-.16A1.73,1.73,0,0,0-.33,25a1.48,1.48,0,0,0-.56.43,2,2,0,0,0-.37.65,2.78,2.78,0,0,0-.12.83,2.71,2.71,0,0,0,.12.82,2.13,2.13,0,0,0,.37.66,1.74,1.74,0,0,0,.56.44A1.87,1.87,0,0,0,.43,29a1.79,1.79,0,0,0,.75-.15,1.78,1.78,0,0,0,.57-.44,2.08,2.08,0,0,0,.35-.66A2.43,2.43,0,0,0,2.23,26.92Z"/><path class="cls-2" d="M5.62,24.5a.47.47,0,0,1,.17-.43.78.78,0,0,1,.48-.13,1.48,1.48,0,0,1,.39,0l.21.07V28.8H9.72v1.1H5.62Z"/><path class="cls-2" d="M11.28,24.5a.47.47,0,0,1,.18-.43.78.78,0,0,1,.48-.13,1.48,1.48,0,0,1,.39,0l.21.07v3.13a3.57,3.57,0,0,0,.07.76,1.46,1.46,0,0,0,.23.57,1.07,1.07,0,0,0,.44.37A1.77,1.77,0,0,0,14,29a1.84,1.84,0,0,0,.71-.13,1.1,1.1,0,0,0,.45-.37,1.62,1.62,0,0,0,.23-.57,4.42,4.42,0,0,0,.06-.76V24.5a.47.47,0,0,1,.18-.43.78.78,0,0,1,.48-.13,1.54,1.54,0,0,1,.39,0l.21.07v3.27A2.73,2.73,0,0,1,16,29.38a2.77,2.77,0,0,1-2,.67,2.78,2.78,0,0,1-2-.67,2.73,2.73,0,0,1-.69-2.05Z"/><path class="cls-2" d="M23.08,23.94a.63.63,0,0,1,.46.14.54.54,0,0,1,.13.4,1,1,0,0,1-.06.35.73.73,0,0,1-.09.21H21.58V29.9H20.32V25H18.94a.59.59,0,0,1-.46-.14.54.54,0,0,1-.13-.4,1,1,0,0,1,.06-.35.53.53,0,0,1,.09-.21Z"/><path class="cls-2" d="M25.41,24.5a.5.5,0,0,1,.17-.43.79.79,0,0,1,.49-.13,1.46,1.46,0,0,1,.38,0l.21.07V29.9H25.41Z"/><path class="cls-2" d="M35,26.92a3.37,3.37,0,0,1-.22,1.24,2.86,2.86,0,0,1-.64,1,2.92,2.92,0,0,1-1,.66,3.45,3.45,0,0,1-2.53,0,2.92,2.92,0,0,1-1-.66,3,3,0,0,1-.64-1,3.37,3.37,0,0,1-.22-1.24A3.33,3.33,0,0,1,29,25.68a2.82,2.82,0,0,1,.64-1,2.92,2.92,0,0,1,1-.66,3.45,3.45,0,0,1,2.53,0,2.92,2.92,0,0,1,1,.66,2.69,2.69,0,0,1,.64,1A3.33,3.33,0,0,1,35,26.92Zm-1.3,0a2.78,2.78,0,0,0-.12-.83,2.14,2.14,0,0,0-.36-.65,1.44,1.44,0,0,0-.57-.43,1.65,1.65,0,0,0-.75-.16,1.73,1.73,0,0,0-.76.16,1.48,1.48,0,0,0-.56.43,1.79,1.79,0,0,0-.36.65,2.49,2.49,0,0,0-.13.83,2.43,2.43,0,0,0,.13.82,1.92,1.92,0,0,0,.36.66,1.74,1.74,0,0,0,.56.44,1.87,1.87,0,0,0,.76.15,1.79,1.79,0,0,0,.75-.15,1.68,1.68,0,0,0,.57-.44,2.33,2.33,0,0,0,.36-.66A2.71,2.71,0,0,0,33.66,26.92Z"/><path class="cls-2" d="M38.44,24.15a2.21,2.21,0,0,1,.2.25l.37.52.48.68c.18.25.35.51.53.78l.53.8.45.71V24.5a.47.47,0,0,1,.18-.43.78.78,0,0,1,.48-.13A1.4,1.4,0,0,1,42,24l.21.07V29.9H41l-.68-1c-.26-.39-.51-.78-.77-1.16l-.72-1.06-.56-.81V29.9H37.05V24.57a.63.63,0,0,1,.17-.43.53.53,0,0,1,.23-.14.79.79,0,0,1,.32-.06,1,1,0,0,1,.43.07A1.53,1.53,0,0,1,38.44,24.15Z"/></svg>