<svg id="Calque_1" data-name="Calque 1" xmlns="http://www.w3.org/2000/svg" viewBox="0 0 50.62 51"><defs><style>.cls-1{fill:#282658;}</style></defs><title>Plan de travail 3 copie 2</title><path class="cls-1" d="M84,54.05a.93.93,0,0,0-1-.72l-1.3-3.07A.86.86,0,0,0,81.55,49L82,45.84a.91.91,0,0,0-.25-1.76l-2.31-5a1.54,1.54,0,0,0-1.33-2.66,1.49,1.49,0,0,0-.4.15L72.2,30.89a1.52,1.52,0,0,0,.17-1.07,1.55,1.55,0,0,0-1.82-1.19,1.6,1.6,0,0,0-.75.4L61.15,24.1a1.31,1.31,0,0,0,0-.44,1.23,1.23,0,0,0-1.46-.95,1.2,1.2,0,0,0-.8.58L50.3,21.82c0-.05,0-.09,0-.14a1.54,1.54,0,0,0-3,0l-6.6.4a.92.92,0,0,0-1-.42.89.89,0,0,0-.62.51l-6.25.26a1.54,1.54,0,0,0-1.76-1,1.61,1.61,0,0,0-.8.44l-7.7-4a1.57,1.57,0,0,0,0-.61,1.54,1.54,0,0,0-3-.12H11.52a1.22,1.22,0,1,0-.88,1.64l.13-.05,2.76,3.39a1,1,0,0,0-.06.54.93.93,0,0,0,.39.57l-.32,3.34h0a1.55,1.55,0,0,0-1.19,1.82,1.63,1.63,0,0,0,.18.45L8.92,32.58a1.49,1.49,0,0,0-1-.14,1.54,1.54,0,0,0-1.19,1.82,1.61,1.61,0,0,0,.12.33L.56,40.15a.85.85,0,0,0-.5,0,.91.91,0,0,0-.71,1.09s0,0,0,0l-5.54,5A1.53,1.53,0,0,0-7.31,46,1.54,1.54,0,0,0-8.5,47.84a1.71,1.71,0,0,0,.21.5l-6.09,7a.94.94,0,0,0-.41,0,.91.91,0,0,0-.71,1.09.81.81,0,0,0,.13.3L-20,65a1.47,1.47,0,0,0-.66,0,1.52,1.52,0,0,0-1.2,1.69l-7.27,3.17a1.53,1.53,0,0,0-1.49-.52,1.54,1.54,0,0,0-1.2,1.68l-3.89,1.66a.87.87,0,0,0-.75-.19.92.92,0,0,0-.72,1.09.47.47,0,0,0,0,.1l-3.76,4a1.22,1.22,0,0,0-.71-.08,1.23,1.23,0,0,0-1,1.46,1.24,1.24,0,0,0,1.46,1,1.24,1.24,0,0,0,1-1l7-1.42a.92.92,0,0,0,.89.32.91.91,0,0,0,.65-.58l6.41-.84a1.21,1.21,0,0,0,1.32.63,1.13,1.13,0,0,0,.62-.37L-17.93,79a1.29,1.29,0,0,0,0,.48,1.53,1.53,0,0,0,1.82,1.19,1.54,1.54,0,0,0,1.19-1.82,1.5,1.5,0,0,0-.49-.83l1.57-3.38h.14a.92.92,0,0,0,.71-1.1.9.9,0,0,0-.8-.71l-1.39-3.41a.89.89,0,0,0,.2-.74L-6.61,62a1.54,1.54,0,0,0,1.2.26,1.55,1.55,0,0,0,1.2-1.76l8.94-4.34a1.49,1.49,0,0,0,1.45.48,1.54,1.54,0,0,0,1.22-1.5l8.71-2.53A1.22,1.22,0,0,0,18.3,52l7.23-1.6a1.53,1.53,0,0,0,2.86-.6l7.92-1.56A.9.9,0,0,0,37.87,48l6.07-.92a1.56,1.56,0,0,0,.23.34l-1.48,2.26a1.13,1.13,0,0,0-.26,0,.92.92,0,0,0-.72,1.09h0L39.17,53a1.13,1.13,0,0,0-.66-.07,1.24,1.24,0,0,0-.95,1.46,1.22,1.22,0,0,0,2.34.17L46,55a.91.91,0,0,0,1,.53.94.94,0,0,0,.72-.8L54.52,52a.94.94,0,0,0,.78.21.92.92,0,0,0,.72-.94l5.65-3.37A1.51,1.51,0,0,0,63,48.3a1.48,1.48,0,0,0,.86-.52l8.84,3.84a1.15,1.15,0,0,0,0,.32,1.23,1.23,0,0,0,1.45,1,1,1,0,0,0,.39-.17l5.33,4.07a1,1,0,0,0,0,.34.91.91,0,0,0,1.09.71.92.92,0,0,0,.72-1.09l-.06-.13,1.27-1.47a.79.79,0,0,0,.34,0A.92.92,0,0,0,84,54.05Zm-3.37,2a1,1,0,0,0-.18.08L75.1,52a1.26,1.26,0,0,0,.05-.58l5-1.42a.88.88,0,0,0,.74.56l1.37,3.23a.89.89,0,0,0-.09.6,1.22,1.22,0,0,0,.07.17L81,56A.85.85,0,0,0,80.63,56Zm-25-5.49a.89.89,0,0,0-.56-.12l-1.12-5.35a.92.92,0,0,0,.61-1,1,1,0,0,0-.72-.72l.44-5.38a1.23,1.23,0,0,0,.33,0,1.61,1.61,0,0,0,.57-.24l6.53,8a1.51,1.51,0,0,0-.46,1.43.14.14,0,0,0,0,.07Zm-8.22,3.35a.87.87,0,0,0-.64-.21l-1-5.76a1.5,1.5,0,0,0,.94-.7L54.26,51a.6.6,0,0,0-.06.19Zm-7.48-.2a1.17,1.17,0,0,0,0-.11l2.46-2.13a.88.88,0,0,0,.51,0,.91.91,0,0,0,.71-1.09.87.87,0,0,0-.1-.24L44.9,47.9a1.47,1.47,0,0,0,.59.06l1,5.75a.93.93,0,0,0-.52.39Zm-2.14-6.54a.91.91,0,0,0-.93-.35l-.11.05-4.54-9.14a1.56,1.56,0,0,0,.6-.65l7.39,3a.89.89,0,0,0,0,.43.92.92,0,0,0,1.1.71,1,1,0,0,0,.24-.1l2.9,4.14a1.6,1.6,0,0,0-.56,1ZM28.22,49a1.44,1.44,0,0,0-.76-.7L31,37.87a1.55,1.55,0,0,0,.71,0l.27-.08,4.53,9.12a.9.9,0,0,0-.36.5ZM7.16,54.3a1.58,1.58,0,0,0-.74-.61l2.49-8a1.67,1.67,0,0,0,.67,0,1.56,1.56,0,0,0,.7-.36l5.87,5.74a1.17,1.17,0,0,0-.27.67ZM-14.78,73.6-18,73.38a.75.75,0,0,0,0-.15.9.9,0,0,0-1-.71L-20,68a1.59,1.59,0,0,0,.89-.67l2.37,1.23a.88.88,0,0,0-.06.51.91.91,0,0,0,.81.71l1.38,3.41A1,1,0,0,0-14.78,73.6Zm-17,2.9a.8.8,0,0,0-.35-.28l1.36-3.86a1.46,1.46,0,0,0,.72,0,1.47,1.47,0,0,0,.8-.44l4,3.31a1.14,1.14,0,0,0-.18.41Zm-3.66-3,3.89-1.66a1.62,1.62,0,0,0,.57.44l-1.35,3.85a.86.86,0,0,0-.39,0,.91.91,0,0,0-.39.2L-35.59,74A.86.86,0,0,0-35.42,73.51Zm11,1.23a1.16,1.16,0,0,0-.6.36l-4.05-3.33a1.52,1.52,0,0,0,.27-1.08l7.27-3.17a1.54,1.54,0,0,0,1.38.53l.95,4.51a.91.91,0,0,0-.61,1s0,.07,0,.1l-3.35,1.61A1.22,1.22,0,0,0-24.45,74.74ZM17.14,36.37l.11,0,2.93,6.06a1.2,1.2,0,0,0-.59,1l-8.81.6a.41.41,0,0,0,0-.11,1.49,1.49,0,0,0-.41-.76l6.07-6.91A.93.93,0,0,0,17.14,36.37Zm37.2,14.45L46.76,47a1.54,1.54,0,0,0,.08-.88l5.93-1.59a.9.9,0,0,0,.92.56l1.13,5.35A.92.92,0,0,0,54.34,50.82ZM41.87,40.67,52.71,44a1,1,0,0,0,0,.3l-5.93,1.59a1.53,1.53,0,0,0-1.76-1,1.41,1.41,0,0,0-.47.19L41.64,41A1,1,0,0,0,41.87,40.67ZM53.58,43.3s-.1,0-.16,0a.87.87,0,0,0-.63.53L41.94,40.47a.91.91,0,0,0,0-.33l10.88-3.22a1.53,1.53,0,0,0,1.2,1Zm-.83-6.6v0L41.87,39.94a.91.91,0,0,0-.51-.49l2-8.07a1.31,1.31,0,0,0,.44,0,1.19,1.19,0,0,0,.75-.5l8.32,4.84A1.52,1.52,0,0,0,52.75,36.7Zm-9.59-5.39-2,8.08a1,1,0,0,0-.3,0,.89.89,0,0,0-.61.47l-7.39-3a1.51,1.51,0,0,0,0-.79,1.4,1.4,0,0,0-.09-.29l9.71-5A1.2,1.2,0,0,0,43.16,31.31ZM30.8,37.8,27.26,48.21a1.55,1.55,0,0,0-.71,0,1.46,1.46,0,0,0-.67.33l-4.16-4.31a1.21,1.21,0,0,0,.29-1,1.92,1.92,0,0,0-.14-.33l8.31-5.52A1.47,1.47,0,0,0,30.8,37.8Zm-14,12.86a1.27,1.27,0,0,0-.54.28L10.43,45.2a1.53,1.53,0,0,0,.37-1l8.8-.6s0,0,0,.07a1.21,1.21,0,0,0,.61.81l-2.73,6.23A1.17,1.17,0,0,0,16.84,50.66ZM7.76,44.53A1.42,1.42,0,0,0,8,45L-.82,51.26A.85.85,0,0,0-1.24,51L.22,41.91a1.61,1.61,0,0,0,.22,0,.9.9,0,0,0,.62-.5L7.79,43.8A1.39,1.39,0,0,0,7.76,44.53ZM-12.45,62a.9.9,0,0,0-.94-.61l-.91-4.36a.9.9,0,0,0,.47-.34l6.69,3.41a1.47,1.47,0,0,0-.1.81Zm6.69-2.84L-6.74,49h.07a1.55,1.55,0,0,0,.81-.47l3.59,2.83a.91.91,0,0,0-.12.67.93.93,0,0,0,.41.59l-3.18,6.66A1.52,1.52,0,0,0-5.76,59.2ZM0,41.88-1.45,51h-.23a1,1,0,0,0-.45.26l-3.59-2.83a1.54,1.54,0,0,0,.23-1.19,1.06,1.06,0,0,0-.12-.34l5.56-5Zm-6.95,7.18,1,10.17H-6A1.5,1.5,0,0,0-7,60l-6.7-3.42a1.09,1.09,0,0,0,.05-.51.67.67,0,0,0-.06-.12l6.11-7A1.62,1.62,0,0,0-6.95,49.06Zm-7.67,8.06h.1l.92,4.35a.91.91,0,0,0-.61,1.05.93.93,0,0,0,.47.62L-15.63,68A1,1,0,0,0-16,68a.9.9,0,0,0-.57.39L-19,67.14a1.59,1.59,0,0,0,.1-.92,1.56,1.56,0,0,0-.41-.76Zm-.76,10.82,1.84-4.72a1,1,0,0,0,.42,0,.93.93,0,0,0,.72-1l5.2-1.09c0,.05,0,.11,0,.16ZM-5,59.41l3.19-6.68a.86.86,0,0,0,.48,0,.92.92,0,0,0,.72-1.09,1.12,1.12,0,0,0-.11-.25l8.77-6.25a1.46,1.46,0,0,0,.62.46l-2.48,8a1.51,1.51,0,0,0-.67,0,1.54,1.54,0,0,0-1.2,1.76l-8.93,4.33A1.62,1.62,0,0,0-5,59.41ZM17.68,50.8l2.73-6.23a1.17,1.17,0,0,0,.64.06,1.22,1.22,0,0,0,.52-.26l4.15,4.3a1.52,1.52,0,0,0-.38.92L18.11,51.2A1.27,1.27,0,0,0,17.68,50.8ZM63,45.28l1-8.91a1.2,1.2,0,0,0,.19,0,.92.92,0,0,0,.39-.21l6.56,6.15a1.18,1.18,0,0,0-.25,1l0,.09L64.1,46.13A1.56,1.56,0,0,0,63,45.28Zm15.69-5.84,2.3,5a1.26,1.26,0,0,0-.13.26l-7.53-1.51a1,1,0,0,0,0-.39,1.27,1.27,0,0,0-.18-.43l4.2-3.4A1.5,1.5,0,0,0,78.69,39.44Zm-5.4,4,7.53,1.51a.82.82,0,0,0,0,.27.93.93,0,0,0,.35.53l-.48,3.13a.91.91,0,0,0-.59,1l-5,1.41a1.21,1.21,0,0,0-1.27-.77l-1.32-6.26A1.21,1.21,0,0,0,73.29,43.4ZM29.88,22.6a1.4,1.4,0,0,0,0,.61,1.53,1.53,0,0,0,3,.06L39.12,23a.92.92,0,0,0,1,.44.88.88,0,0,0,.63-.52l6.61-.41a1.53,1.53,0,0,0,2.82.16l8.58,1.48v0a1.24,1.24,0,0,0,1.46.95,1.36,1.36,0,0,0,.52-.27l8.66,4.94a1.51,1.51,0,0,0,0,.67,1.54,1.54,0,0,0,1.82,1.19,1.74,1.74,0,0,0,.4-.15l5.55,5.68A1.48,1.48,0,0,0,77,38.24a1.63,1.63,0,0,0,.25.57L73,42.21a1.21,1.21,0,0,0-1.12-.36,1.23,1.23,0,0,0-.55.3L64.77,36a.89.89,0,0,0,.16-.73.91.91,0,0,0-1.09-.71.91.91,0,0,0,0,1.79l-1,8.91a1.67,1.67,0,0,0-.38,0,1.63,1.63,0,0,0-.57.25l-6.52-8a1.54,1.54,0,0,0-1.37-2.62,1.46,1.46,0,0,0-.95.64l-8.34-4.84a1.19,1.19,0,0,0,.11-.77,1.23,1.23,0,1,0-2.41.51,1.76,1.76,0,0,0,.09.2l-9.74,5a1.53,1.53,0,0,0-2.26-.41l-6.41-7a1.2,1.2,0,0,0,.31-1.07,1.23,1.23,0,1,0-.95,1.46,1.18,1.18,0,0,0,.49-.24l6.4,7a1.51,1.51,0,0,0-.39,1.37,1.3,1.3,0,0,0,.17.44l-8.31,5.52a1.21,1.21,0,0,0-1.2-.44.67.67,0,0,0-.17.07l-2.93-6.06a.92.92,0,0,0-.69-1.67.91.91,0,0,0-.71,1.09.83.83,0,0,0,.23.42L10.19,43A1.55,1.55,0,0,0,9,42.7a1.53,1.53,0,0,0-1.09.89L1.15,41.21a.9.9,0,0,0,0-.4v0L7.4,35.24a1.53,1.53,0,0,0,2.32-1.61,1.61,1.61,0,0,0-.17-.45l3.58-3.76a1.48,1.48,0,0,0,1,.14,1.54,1.54,0,0,0,1.19-1.82,1.56,1.56,0,0,0-.94-1.11l.33-3.35a.91.91,0,0,0-.53-1.74l-2.75-3.37a1.34,1.34,0,0,0,.07-.18H19.6a1.54,1.54,0,0,0,1.79,1.07,1.45,1.45,0,0,0,.79-.44ZM-36.55,74.31a1,1,0,0,0,.42,0,.92.92,0,0,0,.39-.21l2.49,2.37a.9.9,0,0,0-.13.28l-6.76,1.38Zm19.83,3.39a1.5,1.5,0,0,0-.87.54L-23,76a1.43,1.43,0,0,0,0-.29,1.22,1.22,0,0,0-.07-.17l3.35-1.61a.91.91,0,0,0,1,.42.93.93,0,0,0,.72-.74l3.25.23c0,.05,0,.1,0,.14a.86.86,0,0,0,.17.36l-1.57,3.37A1.41,1.41,0,0,0-16.72,77.7ZM64.22,46.48s0-.1,0-.15l6.87-2.73a1.2,1.2,0,0,0,1.22.66l1.32,6.26a1.34,1.34,0,0,0-.51.32L64.24,47A1.46,1.46,0,0,0,64.22,46.48Z"/></svg>