<svg id="Calque_1" data-name="Calque 1" xmlns="http://www.w3.org/2000/svg" viewBox="0 0 51 51"><defs><style>.cls-1{fill:#282658;}.cls-2{fill:#f08e63;}</style></defs><title>Plan de travail 3 copie 7</title><path class="cls-1" d="M29.52-8.11a14.57,14.57,0,0,0-1-1,7.09,7.09,0,0,0-1.67-1.08,12.13,12.13,0,0,0-2.44-.85,13.66,13.66,0,0,0-3.23-.35,9.31,9.31,0,0,0-2.59.31,4.27,4.27,0,0,0-1.61.82,2.91,2.91,0,0,0-.82,1.18,3.73,3.73,0,0,0-.24,1.3,3,3,0,0,0,.93,2.15A6.87,6.87,0,0,0,20.14-4.2l3.69.82A24.89,24.89,0,0,1,27.7-2.2a11.13,11.13,0,0,1,3,1.71A7.06,7.06,0,0,1,32.59,2a7.86,7.86,0,0,1,.67,3.39,10.66,10.66,0,0,1-.69,3.93,7.79,7.79,0,0,1-2.16,3,10.06,10.06,0,0,1-3.73,1.95,18.45,18.45,0,0,1-5.41.7,23.84,23.84,0,0,1-5.17-.5,21.74,21.74,0,0,1-3.74-1.15A15.1,15.1,0,0,1,10,12.07c-.58-.39-.94-.64-1.09-.76l3-4.52a8.19,8.19,0,0,0,.89.7,12.12,12.12,0,0,0,1.91,1.08,16.85,16.85,0,0,0,2.89,1,14.29,14.29,0,0,0,3.78.46,10.23,10.23,0,0,0,2.85-.33,4.55,4.55,0,0,0,1.71-.84,2.8,2.8,0,0,0,.85-1.22A4.34,4.34,0,0,0,27,6.23,3.09,3.09,0,0,0,25.63,3.6a9.36,9.36,0,0,0-3.71-1.46l-4.09-.82A16.25,16.25,0,0,1,14.9.4a9.5,9.5,0,0,1-2.63-1.63A7.86,7.86,0,0,1,10.38-3.7a7.61,7.61,0,0,1-.71-3.41,9.39,9.39,0,0,1,.69-3.63,8,8,0,0,1,2.11-2.94,9.92,9.92,0,0,1,3.56-2,15.87,15.87,0,0,1,5-.72,25.15,25.15,0,0,1,3.74.24,22.33,22.33,0,0,1,2.67.56,10.63,10.63,0,0,1,1.78.68c.45.23.79.42,1,.56a4,4,0,0,1,1.28,1.26A2.71,2.71,0,0,1,32-11.63a2.85,2.85,0,0,1-.3,1.32,5.72,5.72,0,0,1-.7,1,4.18,4.18,0,0,1-.8.74A6.44,6.44,0,0,1,29.52-8.11Z"/><path class="cls-1" d="M39.78-12.85A2.46,2.46,0,0,1,40.67-15a4.1,4.1,0,0,1,2.41-.63,6.68,6.68,0,0,1,1.93.26c.57.17.92.29,1.07.35V14.22h-6.3Z"/><path class="cls-2" d="M14.33,29.9l-.23-4.18-.72,1.55c-.23.49-.48,1-.73,1.51h-.83c-.13-.25-.26-.52-.39-.79s-.27-.55-.39-.82-.24-.52-.36-.77-.22-.48-.31-.68l-.23,4.18H8.88l.28-5.28a.7.7,0,0,1,.22-.52.85.85,0,0,1,.54-.17,1.54,1.54,0,0,1,.52.08,1.09,1.09,0,0,1,.3.13q.18.36.36.75c.13.26.25.52.38.79l.38.81.4.78L13,25.85q.34-.71.63-1.35a1.06,1.06,0,0,1,.33-.44.9.9,0,0,1,.54-.13A1.56,1.56,0,0,1,15,24a1,1,0,0,1,.25.12l.33,5.77Z"/><path class="cls-2" d="M17.15,29.9c.12-.35.26-.7.41-1.06s.29-.73.44-1.08.29-.71.44-1l.39-.93c.12-.28.23-.52.33-.74s.17-.38.23-.49a1.17,1.17,0,0,1,.42-.56,1,1,0,0,1,.57-.15,1.15,1.15,0,0,1,.51.1,1.37,1.37,0,0,1,.25.16c.1.18.23.43.37.73s.3.64.46,1,.32.75.48,1.14.32.78.46,1.15.28.71.4,1l.28.74H22.25c-.05-.13-.11-.3-.2-.51l-.29-.76H18.92q-.18.44-.3.75c-.08.21-.15.38-.2.52Zm3.19-4.8a2.31,2.31,0,0,0-.14.32L20,26l-.3.74c-.11.27-.21.54-.32.8h2c-.1-.26-.21-.53-.32-.8s-.2-.52-.3-.74l-.24-.58Z"/><path class="cls-2" d="M25.28,24.61a.61.61,0,0,1,.7-.68H27.6l.34,0,.33,0a2.45,2.45,0,0,1,.66.25,1.76,1.76,0,0,1,.47.43,2.19,2.19,0,0,1,.28.55,2.32,2.32,0,0,1,.09.65,2.07,2.07,0,0,1-.26,1,1.8,1.8,0,0,1-.32.42,1.34,1.34,0,0,1-.45.31c.09.13.21.29.34.49s.26.4.4.62.26.44.38.66.22.4.3.57H28.72c0-.09-.11-.22-.2-.39s-.19-.36-.31-.56a6.49,6.49,0,0,0-.37-.6l-.36-.54H27l-.48,0V29.9H25.28Zm3.2,1.25a1.08,1.08,0,0,0-.12-.52.73.73,0,0,0-.44-.33.92.92,0,0,0-.26-.05,1.51,1.51,0,0,0-.3,0h-.85v1.8l.2,0a2.67,2.67,0,0,0,.47,0,2.2,2.2,0,0,0,.63-.08.94.94,0,0,0,.4-.21.75.75,0,0,0,.21-.3A1,1,0,0,0,28.48,25.86Z"/><path class="cls-2" d="M32,24.49a.5.5,0,0,1,.17-.43.79.79,0,0,1,.49-.13A1.46,1.46,0,0,1,33,24l.22.07V29.9H32Z"/><path class="cls-2" d="M39.72,23.93a.62.62,0,0,1,.46.14.55.55,0,0,1,.13.4,1.36,1.36,0,0,1-.05.36.71.71,0,0,1-.1.2H38.22V29.9H37V25H35.58a.63.63,0,0,1-.46-.13.57.57,0,0,1-.13-.4,1,1,0,0,1,.06-.36l.09-.21Z"/><path class="cls-2" d="M42.05,24.49a.47.47,0,0,1,.18-.43.78.78,0,0,1,.48-.13,1.6,1.6,0,0,1,.39.05l.21.07V29.9H42.05Z"/><path class="cls-2" d="M51,29.9l-.23-4.18L50,27.27c-.23.49-.48,1-.73,1.51h-.84c-.12-.25-.25-.52-.39-.79s-.26-.55-.38-.82-.25-.52-.36-.77-.22-.48-.31-.68l-.23,4.18H45.52l.28-5.28A.7.7,0,0,1,46,24.1a.85.85,0,0,1,.54-.17,1.54,1.54,0,0,1,.52.08,1.09,1.09,0,0,1,.3.13q.16.36.36.75c.12.26.25.52.38.79s.25.54.38.81.26.53.4.78l.71-1.42c.22-.47.44-.92.63-1.35a1.14,1.14,0,0,1,.32-.44,1,1,0,0,1,.55-.13,1.6,1.6,0,0,1,.53.08,1,1,0,0,1,.25.12l.33,5.77Z"/></svg>