<svg id="Calque_1" data-name="Calque 1" xmlns="http://www.w3.org/2000/svg" viewBox="0 0 138 26"><defs><style>.cls-1{fill:#fff;}.cls-2{fill:#f08e63;}</style></defs><title>Plan de travail 1</title><path class="cls-1" d="M27,5.15a6.19,6.19,0,0,0-.57-.55,3.51,3.51,0,0,0-.9-.59,6.24,6.24,0,0,0-1.33-.46,7.11,7.11,0,0,0-1.75-.19A5.07,5.07,0,0,0,21,3.52a2.23,2.23,0,0,0-.87.45,1.63,1.63,0,0,0-.45.64,1.94,1.94,0,0,0-.13.71,1.57,1.57,0,0,0,.51,1.16,3.64,3.64,0,0,0,1.8.8l2,.44a14.9,14.9,0,0,1,2.1.64,6,6,0,0,1,1.62.93,3.88,3.88,0,0,1,1,1.34A4.35,4.35,0,0,1,29,12.47a5.54,5.54,0,0,1-.38,2.13,4.24,4.24,0,0,1-1.16,1.65,5.65,5.65,0,0,1-2,1.06,10.24,10.24,0,0,1-2.94.38,12.89,12.89,0,0,1-2.81-.28,12.07,12.07,0,0,1-2-.62,8.46,8.46,0,0,1-1.3-.67c-.32-.22-.51-.35-.59-.42l1.6-2.45c.07.06.23.19.49.38a7.52,7.52,0,0,0,1,.59,10.08,10.08,0,0,0,1.57.55A7.62,7.62,0,0,0,22.5,15a5.59,5.59,0,0,0,1.55-.18,2.52,2.52,0,0,0,.93-.46,1.56,1.56,0,0,0,.46-.66,2.28,2.28,0,0,0,.13-.78,1.69,1.69,0,0,0-.72-1.43,5.22,5.22,0,0,0-2-.79l-2.22-.45A8.8,8.8,0,0,1,19,9.78a5.13,5.13,0,0,1-1.43-.89,4.4,4.4,0,0,1-1-1.34,4.18,4.18,0,0,1-.39-1.86,5.16,5.16,0,0,1,.38-2A4.32,4.32,0,0,1,17.7,2.13a5.21,5.21,0,0,1,1.93-1.07A8.64,8.64,0,0,1,22.36.67a13.22,13.22,0,0,1,2,.13,9.88,9.88,0,0,1,1.45.3,5.68,5.68,0,0,1,1,.37,5.4,5.4,0,0,1,.55.31,2.07,2.07,0,0,1,.7.68,1.55,1.55,0,0,1,.25.78,1.53,1.53,0,0,1-.17.72,2.83,2.83,0,0,1-.38.57,2.65,2.65,0,0,1-.43.4A3.5,3.5,0,0,1,27,5.15Z"/><path class="cls-1" d="M32.53,2.58A1.32,1.32,0,0,1,33,1.41a2.21,2.21,0,0,1,1.31-.34,3.42,3.42,0,0,1,1.05.14L36,1.4V17.28H32.53Z"/><path class="cls-1" d="M44.24,1.63a7.14,7.14,0,0,1,.53.69c.28.38.61.84,1,1.4l1.32,1.87c.47.68,1,1.39,1.45,2.12s1,1.45,1.42,2.16.88,1.36,1.24,1.94V2.58a1.35,1.35,0,0,1,.49-1.17A2.21,2.21,0,0,1,53,1.07a3.25,3.25,0,0,1,1,.14c.29.09.47.16.55.19V17.28H51.23c-.55-.85-1.17-1.8-1.87-2.86S48,12.31,47.29,11.28s-1.35-2-2-2.91-1.12-1.63-1.52-2.18V17.28H40.44V2.79a1.66,1.66,0,0,1,.12-.61,1.65,1.65,0,0,1,.35-.56,1.75,1.75,0,0,1,.62-.4,2.33,2.33,0,0,1,.87-.15,2.73,2.73,0,0,1,1.18.2A4.67,4.67,0,0,1,44.24,1.63Z"/><path class="cls-1" d="M74.6,4.87a11.68,11.68,0,0,1-.76-1.12,2.15,2.15,0,0,1-.33-1.1,2.6,2.6,0,0,1,.07-.56,1.41,1.41,0,0,1,.26-.5,1.28,1.28,0,0,1,.5-.38,1.82,1.82,0,0,1,.8-.14,2.86,2.86,0,0,1,1.09.17,3.18,3.18,0,0,1,.47.25c0,.08.23.37.57.88l1.18,1.8c.45.7.94,1.43,1.46,2.18s1,1.42,1.39,2c.6-.85,1.19-1.73,1.77-2.63L84.8,3c.18-.28.36-.54.53-.79a2.91,2.91,0,0,1,.53-.61,2,2,0,0,1,.64-.39,2.07,2.07,0,0,1,.82-.14,2.45,2.45,0,0,1,.74.1,3.88,3.88,0,0,1,.61.24,3.58,3.58,0,0,1,.42.25l.19.14c-.09.16-.27.44-.52.86s-.55.91-.91,1.48S87.11,5.32,86.68,6s-.85,1.31-1.28,2L84.13,9.79c-.41.59-.77,1.09-1.11,1.5v6H79.44v-6L78.1,9.58c-.46-.61-.91-1.2-1.34-1.79s-.84-1.12-1.22-1.64Z"/><path class="cls-1" d="M74,15.28c-.32-.84-.68-1.76-1.07-2.76s-.81-2-1.25-3.13-.88-2.12-1.31-3.12-.85-1.91-1.24-2.74-.73-1.48-1-2a3.41,3.41,0,0,0-.67-.45,3.06,3.06,0,0,0-1.4-.26,2.83,2.83,0,0,0-1.54.41,3.48,3.48,0,0,0-1.16,1.51c-.15.31-.36.76-.62,1.34s-.56,1.26-.89,2-.68,1.6-1.07,2.51c-.18.43-.36.87-.55,1.31a10.16,10.16,0,0,1-1.76-.07l-.17,0A3.36,3.36,0,0,1,57,9.13h0v3.52a4,4,0,0,0,1.15.27A7.89,7.89,0,0,0,59,13l-.57,1.4c-.41,1-.78,2-1.13,2.88h3.47c.15-.36.33-.82.55-1.39l1.22-3.08,1.32-.18a17.25,17.25,0,0,1,5.41-.23l1.15,2.93.23.57c.23.58.41,1,.53,1.38h3.64ZM63.82,9.53l.32-.8c.3-.73.57-1.41.81-2l.64-1.58q.27-.66.39-.9c.06.17.19.48.37.92s.39,1,.65,1.57.52,1.28.81,2l.18.46A26.46,26.46,0,0,0,63.82,9.53Z"/><path class="cls-2" d="M18.09,25l-.1-1.8-.31.67c-.1.21-.2.43-.31.65H17l-.17-.34c-.06-.12-.11-.24-.16-.35l-.16-.34c-.05-.1-.09-.2-.13-.29l-.1,1.8h-.54l.12-2.27a.27.27,0,0,1,.09-.22.36.36,0,0,1,.24-.08.72.72,0,0,1,.22,0l.13,0,.15.33a3.54,3.54,0,0,1,.16.34c.06.11.11.23.17.34l.17.34c.1-.21.21-.41.3-.61l.28-.58a.41.41,0,0,1,.14-.19.37.37,0,0,1,.23-.06.73.73,0,0,1,.23,0l.11,0L18.63,25Z"/><path class="cls-2" d="M19.3,25c.05-.15.11-.3.18-.46s.12-.31.19-.46l.18-.45a4.34,4.34,0,0,0,.17-.4c.06-.12.1-.22.14-.31l.1-.22a.69.69,0,0,1,.19-.24.43.43,0,0,1,.24-.06.43.43,0,0,1,.22,0l.11.07c0,.08.1.18.16.31l.19.44.21.49c.07.17.14.33.2.49l.17.44.12.32h-.58a2.11,2.11,0,0,0-.08-.22c0-.09-.08-.2-.13-.33H20.06c0,.13-.09.24-.13.33l-.08.22Zm1.37-2.07-.06.15-.1.25-.13.32c0,.11-.09.23-.14.34h.86c-.05-.11-.09-.23-.14-.34s-.09-.23-.13-.32l-.1-.25Z"/><path class="cls-2" d="M22.8,22.7a.27.27,0,0,1,.3-.3h.84l.14,0a.92.92,0,0,1,.29.11.86.86,0,0,1,.2.18.9.9,0,0,1,.12.24,1.26,1.26,0,0,1,0,.28.76.76,0,0,1,0,.21,1.19,1.19,0,0,1-.08.2,1.24,1.24,0,0,1-.14.18.8.8,0,0,1-.19.13,1.52,1.52,0,0,0,.14.21l.17.27.16.28a2.05,2.05,0,0,1,.13.25h-.62a1.12,1.12,0,0,0-.08-.17l-.13-.24-.16-.26-.16-.23h-.41V25H22.8Zm1.37.53a.4.4,0,0,0-.05-.22.29.29,0,0,0-.19-.14l-.11,0h-.49v.77l.08,0h.2a1.11,1.11,0,0,0,.28,0,.39.39,0,0,0,.17-.09.3.3,0,0,0,.09-.13A.61.61,0,0,0,24.17,23.23Z"/><path class="cls-2" d="M25.68,22.64a.21.21,0,0,1,.08-.18A.33.33,0,0,1,26,22.4a.38.38,0,0,1,.16,0l.1,0V25h-.55Z"/><path class="cls-2" d="M29,22.4a.25.25,0,0,1,.2.06.24.24,0,0,1,.06.18.4.4,0,0,1,0,.15.19.19,0,0,1,0,.09h-.83V25h-.54V22.88h-.59a.25.25,0,0,1-.2-.06.24.24,0,0,1-.06-.17.41.41,0,0,1,0-.16.46.46,0,0,1,0-.09Z"/><path class="cls-2" d="M30,22.64a.21.21,0,0,1,.08-.18.33.33,0,0,1,.21-.06.38.38,0,0,1,.16,0l.1,0V25H30Z"/><path class="cls-2" d="M33.84,25l-.1-1.8-.31.67c-.1.21-.2.43-.31.65h-.36l-.17-.34c-.06-.12-.11-.24-.17-.35l-.15-.34c-.05-.1-.09-.2-.13-.29L32,25H31.5l.12-2.27a.27.27,0,0,1,.09-.22A.36.36,0,0,1,32,22.4a.72.72,0,0,1,.22,0l.13,0,.15.33c0,.11.11.22.16.34s.11.23.17.34.11.23.17.34c.1-.21.21-.41.3-.61l.28-.58a.41.41,0,0,1,.14-.19.37.37,0,0,1,.23-.06.73.73,0,0,1,.23,0l.11,0L34.38,25Z"/><path class="cls-2" d="M35.87,23.92v.57h1.26V25h-1.8V22.7a.27.27,0,0,1,.3-.3H36.9a.24.24,0,0,1,.19.06.24.24,0,0,1,.06.18.77.77,0,0,1,0,.15l0,.09H35.87v.56h1a.27.27,0,0,1,.2.06.24.24,0,0,1,.06.17.41.41,0,0,1,0,.16.39.39,0,0,1,0,.09Z"/><path class="cls-2" d="M41.67,23.68a1.47,1.47,0,0,1-.09.53,1.2,1.2,0,0,1-.7.67,1.7,1.7,0,0,1-.57.09h-1V22.7a.27.27,0,0,1,.3-.3h.62a2.14,2.14,0,0,1,.48.05,1.19,1.19,0,0,1,.38.17,1,1,0,0,1,.29.26,1.16,1.16,0,0,1,.18.37A1.49,1.49,0,0,1,41.67,23.68Zm-.56,0a.93.93,0,0,0-.13-.5.66.66,0,0,0-.41-.29l-.14,0H39.9v1.67h.39a.86.86,0,0,0,.36-.07.71.71,0,0,0,.41-.44A.88.88,0,0,0,41.11,23.68Z"/><path class="cls-2" d="M42.18,25c0-.15.11-.3.17-.46s.13-.31.19-.46.13-.3.19-.45.12-.27.17-.4l.14-.31a1.64,1.64,0,0,1,.1-.22.58.58,0,0,1,.18-.24.48.48,0,0,1,.24-.06.5.5,0,0,1,.23,0l.1.07a2.86,2.86,0,0,1,.16.31l.2.44.21.49c.07.17.13.33.19.49s.12.31.17.44l.12.32h-.57l-.08-.22c0-.09-.08-.2-.13-.33H42.94c0,.13-.09.24-.13.33a1.65,1.65,0,0,1-.09.22Zm1.37-2.07-.06.15a2.16,2.16,0,0,0-.1.25l-.13.32c0,.11-.1.23-.14.34H44l-.13-.34-.13-.32-.1-.25Z"/><path class="cls-2" d="M47,22.4a.24.24,0,0,1,.19.06.24.24,0,0,1,.06.18.77.77,0,0,1,0,.15l0,.09h-.84V25h-.54V22.88h-.59a.27.27,0,0,1-.2-.06.24.24,0,0,1-.06-.17.41.41,0,0,1,0-.16.39.39,0,0,1,0-.09Z"/><path class="cls-2" d="M47.27,25c0-.15.11-.3.18-.46s.12-.31.19-.46l.18-.45c.06-.14.12-.27.17-.4l.14-.31c0-.1.08-.17.1-.22a.83.83,0,0,1,.18-.24.49.49,0,0,1,.25-.06.46.46,0,0,1,.22,0l.11.07.16.31.19.44.21.49c.07.17.13.33.2.49s.11.31.17.44L50,25h-.58l-.08-.22c0-.09-.08-.2-.13-.33H48c-.05.13-.09.24-.13.33l-.08.22Zm1.37-2.07-.06.15-.1.25-.13.32c-.05.11-.09.23-.14.34h.86c0-.11-.09-.23-.14-.34l-.13-.32-.1-.25Z"/><path class="cls-2" d="M53.55,23.05,53.46,23a.56.56,0,0,0-.14-.09,1,1,0,0,0-.21-.07,1.14,1.14,0,0,0-.28,0,.72.72,0,0,0-.22,0,.37.37,0,0,0-.14.07.3.3,0,0,0-.07.1.5.5,0,0,0,0,.12.25.25,0,0,0,.08.18.6.6,0,0,0,.29.13l.31.07a1.69,1.69,0,0,1,.34.1,1.48,1.48,0,0,1,.25.14.5.5,0,0,1,.16.22.62.62,0,0,1,.06.29.88.88,0,0,1-.06.33.61.61,0,0,1-.18.26.82.82,0,0,1-.32.17,1.63,1.63,0,0,1-.47.06,1.94,1.94,0,0,1-.44,0,1.74,1.74,0,0,1-.32-.1,1,1,0,0,1-.21-.11l-.09-.06.25-.39.08.06.16.09a1.2,1.2,0,0,0,.25.09,1.15,1.15,0,0,0,.33,0,.78.78,0,0,0,.24,0,.52.52,0,0,0,.15-.07.26.26,0,0,0,.07-.11.5.5,0,0,0,0-.12.27.27,0,0,0-.11-.22.79.79,0,0,0-.32-.13l-.35-.07a1,1,0,0,1-.25-.08.68.68,0,0,1-.23-.14.63.63,0,0,1-.22-.5.83.83,0,0,1,.06-.32.72.72,0,0,1,.18-.25.87.87,0,0,1,.3-.17,1.44,1.44,0,0,1,.43-.06l.33,0,.22.05.16.06.09.05a.52.52,0,0,1,.11.1.35.35,0,0,1,0,.13.2.2,0,0,1,0,.11l-.06.09a.19.19,0,0,1-.07.06Z"/><path class="cls-2" d="M57.29,23.68a1.37,1.37,0,0,1-.1.54,1.3,1.3,0,0,1-.27.43,1.34,1.34,0,0,1-.42.28A1.37,1.37,0,0,1,56,25a1.38,1.38,0,0,1-.55-.1,1.34,1.34,0,0,1-.42-.28,1.3,1.3,0,0,1-.27-.43,1.37,1.37,0,0,1-.1-.54,1.32,1.32,0,0,1,.1-.53,1.09,1.09,0,0,1,.27-.42,1.37,1.37,0,0,1,.42-.29,1.54,1.54,0,0,1,1.09,0,1.37,1.37,0,0,1,.42.29,1.09,1.09,0,0,1,.27.42A1.32,1.32,0,0,1,57.29,23.68Zm-.56,0a1.34,1.34,0,0,0,0-.35.85.85,0,0,0-.16-.28.65.65,0,0,0-.24-.19A.79.79,0,0,0,56,22.8a.88.88,0,0,0-.33.06.75.75,0,0,0-.24.19.85.85,0,0,0-.16.28,1.34,1.34,0,0,0,0,.35,1.36,1.36,0,0,0,0,.36.85.85,0,0,0,.16.28.75.75,0,0,0,.24.19.88.88,0,0,0,.33.07.79.79,0,0,0,.32-.07.65.65,0,0,0,.24-.19.85.85,0,0,0,.16-.28A1.36,1.36,0,0,0,56.73,23.68Z"/><path class="cls-2" d="M58.19,22.64a.2.2,0,0,1,.07-.18.33.33,0,0,1,.21-.06.47.47,0,0,1,.17,0l.09,0v2H60V25H58.19Z"/><path class="cls-2" d="M60.62,22.64a.21.21,0,0,1,.08-.18.33.33,0,0,1,.21-.06.41.41,0,0,1,.16,0l.09,0V23.8a1.69,1.69,0,0,0,0,.33.64.64,0,0,0,.1.24.49.49,0,0,0,.19.16.68.68,0,0,0,.31.06.67.67,0,0,0,.3-.06.43.43,0,0,0,.19-.16.64.64,0,0,0,.1-.24,1.69,1.69,0,0,0,0-.33V22.64a.21.21,0,0,1,.08-.18.32.32,0,0,1,.2-.06.43.43,0,0,1,.17,0l.09,0v1.4a1.16,1.16,0,0,1-.3.88,1.13,1.13,0,0,1-.86.29,1.17,1.17,0,0,1-.87-.29,1.16,1.16,0,0,1-.3-.88Z"/><path class="cls-2" d="M65.69,22.4a.27.27,0,0,1,.2.06.24.24,0,0,1,.06.18.4.4,0,0,1,0,.15.39.39,0,0,1,0,.09h-.83V25h-.54V22.88h-.6a.24.24,0,0,1-.19-.06.24.24,0,0,1-.06-.17.78.78,0,0,1,0-.16l0-.09Z"/><path class="cls-2" d="M66.69,22.64a.21.21,0,0,1,.08-.18A.33.33,0,0,1,67,22.4a.41.41,0,0,1,.16,0l.09,0V25h-.54Z"/><path class="cls-2" d="M70.8,23.68a1.37,1.37,0,0,1-.1.54,1.3,1.3,0,0,1-.27.43,1.34,1.34,0,0,1-.42.28,1.37,1.37,0,0,1-.54.1,1.38,1.38,0,0,1-.55-.1,1.34,1.34,0,0,1-.42-.28,1.3,1.3,0,0,1-.27-.43,1.37,1.37,0,0,1-.1-.54,1.32,1.32,0,0,1,.1-.53,1.09,1.09,0,0,1,.27-.42,1.37,1.37,0,0,1,.42-.29,1.54,1.54,0,0,1,1.09,0,1.37,1.37,0,0,1,.42.29,1.09,1.09,0,0,1,.27.42A1.32,1.32,0,0,1,70.8,23.68Zm-.56,0a1.34,1.34,0,0,0,0-.35.85.85,0,0,0-.16-.28.65.65,0,0,0-.24-.19.79.79,0,0,0-.32-.06.88.88,0,0,0-.33.06.75.75,0,0,0-.24.19.85.85,0,0,0-.16.28,1.34,1.34,0,0,0,0,.35,1.36,1.36,0,0,0,0,.36.85.85,0,0,0,.16.28.75.75,0,0,0,.24.19.88.88,0,0,0,.33.07.79.79,0,0,0,.32-.07.65.65,0,0,0,.24-.19.85.85,0,0,0,.16-.28A1.36,1.36,0,0,0,70.24,23.68Z"/><path class="cls-2" d="M72.3,22.49l.08.11.16.22.21.3.23.33.22.35.2.3V22.64a.2.2,0,0,1,.07-.18.33.33,0,0,1,.21-.06.38.38,0,0,1,.16,0l.09,0V25H73.4l-.29-.46L72.78,24l-.31-.46-.24-.35V25H71.7V22.68a.31.31,0,0,1,0-.1l.06-.09a.33.33,0,0,1,.1-.06.29.29,0,0,1,.14,0,.4.4,0,0,1,.18,0Z"/><path class="cls-1" d="M123.44,15.59a.33.33,0,0,0-.36-.26l-.47-1.12a.33.33,0,0,0,.07-.28.36.36,0,0,0-.13-.19l.18-1.14a.33.33,0,0,0-.1-.64l-.84-1.83a.54.54,0,0,0,.18-.54.56.56,0,0,0-.66-.43.47.47,0,0,0-.15.06l-2-2.08a.56.56,0,0,0-.61-.82.49.49,0,0,0-.27.15l-3.16-1.8a.49.49,0,0,0,0-.17.45.45,0,0,0-.53-.34.42.42,0,0,0-.29.21l-3.14-.54V3.78a.56.56,0,0,0-.67-.43.55.55,0,0,0-.43.42l-2.4.15a.35.35,0,0,0-.36-.16.39.39,0,0,0-.23.19l-2.27.1a.57.57,0,0,0-.65-.37.56.56,0,0,0-.29.16L101,2.38a.41.41,0,0,0,0-.22.55.55,0,0,0-.66-.43.57.57,0,0,0-.43.39H97a.43.43,0,0,0-.5-.28.45.45,0,0,0-.35.53.46.46,0,0,0,.54.35l0,0,1,1.24a.31.31,0,0,0,0,.19.34.34,0,0,0,.14.21l-.12,1.22h0a.56.56,0,0,0-.43.67,1,1,0,0,0,.06.16l-1.3,1.37a.54.54,0,0,0-.38,0,.56.56,0,0,0-.43.66.34.34,0,0,0,0,.12l-2.28,2a.4.4,0,0,0-.19,0,.35.35,0,0,0-.26.4h0l-2,1.82a.58.58,0,0,0-.41-.07.57.57,0,0,0-.44.67.58.58,0,0,0,.08.18l-2.23,2.55a.32.32,0,0,0-.14,0,.33.33,0,0,0-.26.4.36.36,0,0,0,0,.11l-1.7,3a.49.49,0,0,0-.24,0,.55.55,0,0,0-.44.62l-2.65,1.15a.59.59,0,0,0-.55-.19.57.57,0,0,0-.44.62l-1.41.6a.35.35,0,0,0-.28-.07.34.34,0,0,0-.26.4s0,0,0,0l-1.37,1.46a.43.43,0,0,0-.25,0,.45.45,0,1,0,.53.51l2.54-.52a.34.34,0,0,0,.33.12.36.36,0,0,0,.24-.21l2.34-.31a.43.43,0,0,0,.48.23.45.45,0,0,0,.22-.13l2,.82a.37.37,0,0,0,0,.18.55.55,0,0,0,.66.43.56.56,0,0,0,.44-.66.64.64,0,0,0-.18-.31l.57-1.23h0a.33.33,0,0,0,0-.66l-.51-1.24a.34.34,0,0,0,.07-.28l3-2.45a.52.52,0,0,0,.44.09.57.57,0,0,0,.44-.64l3.26-1.58a.55.55,0,0,0,1-.37l3.18-.92a.47.47,0,0,0,.45.17.46.46,0,0,0,.35-.38l2.64-.58a.53.53,0,0,0,.6.27.54.54,0,0,0,.44-.49l2.89-.57a.36.36,0,0,0,.33.12.33.33,0,0,0,.24-.22l2.22-.34a.57.57,0,0,0,.08.13l-.54.82h-.1a.34.34,0,0,0-.26.4h0l-.92.8a.42.42,0,0,0-.25,0,.45.45,0,0,0-.34.53.45.45,0,0,0,.53.35.45.45,0,0,0,.32-.29l2.21.15a.34.34,0,0,0,.37.19.32.32,0,0,0,.26-.29l2.5-1a.31.31,0,0,0,.28.08.33.33,0,0,0,.26-.34l2.06-1.23a.57.57,0,0,0,.5.14.55.55,0,0,0,.31-.19l3.23,1.4a.41.41,0,0,0,0,.11.45.45,0,0,0,.53.35.39.39,0,0,0,.15-.06L122,16.59a.28.28,0,0,0,0,.13.35.35,0,0,0,.4.26.34.34,0,0,0,.26-.4s0,0,0,0l.46-.54h.13A.33.33,0,0,0,123.44,15.59Zm-1.23.73s0,0-.06,0l-2-1.49a.38.38,0,0,0,0-.21l1.83-.52a.32.32,0,0,0,.28.2l.49,1.18a.33.33,0,0,0,0,.22l0,.06-.46.53A.33.33,0,0,0,122.21,16.32Zm-9.13-2a.36.36,0,0,0-.21,0l-.41-1.95a.34.34,0,0,0,.22-.39.33.33,0,0,0-.26-.26l.16-2h.12a.67.67,0,0,0,.21-.09l2.38,2.93a.53.53,0,0,0-.16.52v0Zm-3,1.22a.34.34,0,0,0-.24-.07l-.37-2.1a.58.58,0,0,0,.35-.26l2.77,1.39a.14.14,0,0,0,0,.07Zm-2.73-.07,0,0,.9-.78a.22.22,0,0,0,.18,0,.32.32,0,0,0,.26-.39.15.15,0,0,0,0-.09l.54-.83a.55.55,0,0,0,.22,0l.38,2.1a.3.3,0,0,0-.19.14Zm-.78-2.38a.33.33,0,0,0-.34-.13h0l-1.66-3.33a.56.56,0,0,0,.22-.24l2.69,1.1a.29.29,0,0,0,0,.16.34.34,0,0,0,.4.26l.08,0L109,12.38a.57.57,0,0,0-.2.36Zm-3.48.67a.55.55,0,0,0-.28-.26l1.29-3.8a.57.57,0,0,0,.26,0l.1,0L106.11,13a.3.3,0,0,0-.13.18ZM95.4,15.69a.53.53,0,0,0-.26-.23l.9-2.91a.53.53,0,0,0,.25,0,.55.55,0,0,0,.25-.13l2.14,2.1a.42.42,0,0,0-.09.24Zm-8,7-1.19-.08v-.06a.33.33,0,0,0-.36-.26l-.34-1.64a.54.54,0,0,0,.32-.25l.86.45a.4.4,0,0,0,0,.19.35.35,0,0,0,.3.26l.5,1.24A.35.35,0,0,0,87.4,22.73Zm-6.2,1.05a.4.4,0,0,0-.12-.1l.49-1.41a.46.46,0,0,0,.26,0,.55.55,0,0,0,.3-.16l1.47,1.21a.34.34,0,0,0-.07.15Zm-1.33-1.09,1.42-.6a.56.56,0,0,0,.21.16l-.5,1.4h-.14a.31.31,0,0,0-.14.07l-.91-.86A.43.43,0,0,0,79.87,22.69Zm4,.45a.45.45,0,0,0-.22.13l-1.47-1.21a.6.6,0,0,0,.09-.4l2.65-1.15a.57.57,0,0,0,.51.19l.34,1.65a.34.34,0,0,0-.22.38.05.05,0,0,0,0,0l-1.22.59A.46.46,0,0,0,83.87,23.14Zm15.18-14,0,0,1.06,2.21a.46.46,0,0,0-.21.38l-3.21.22a.08.08,0,0,1,0,0,.55.55,0,0,0-.15-.28l2.22-2.52A.33.33,0,0,0,99.05,9.14Zm13.57,5.27L109.85,13a.5.5,0,0,0,0-.32l2.17-.58a.32.32,0,0,0,.33.2l.41,2A.3.3,0,0,0,112.62,14.41Zm-4.55-3.7,4,1.23a.41.41,0,0,0,0,.11l-2.17.58a.55.55,0,0,0-.64-.36.36.36,0,0,0-.17.07L108,10.82A.44.44,0,0,0,108.07,10.71Zm4.27,1h0a.37.37,0,0,0-.24.2l-4-1.23v-.12l4-1.18a.54.54,0,0,0,.43.36ZM112,9.26h0l-4,1.17a.32.32,0,0,0-.19-.17l.74-2.95h.16a.47.47,0,0,0,.27-.18l3,1.76A.5.5,0,0,0,112,9.26Zm-3.5-2-.73,3h-.11a.35.35,0,0,0-.23.16l-2.69-1.09a.57.57,0,0,0,0-.29.42.42,0,0,0,0-.1l3.55-1.81A.52.52,0,0,0,108.54,7.3ZM104,9.67l-1.29,3.79a.75.75,0,0,0-.26,0,.51.51,0,0,0-.24.13L100.72,12a.42.42,0,0,0,.1-.38.37.37,0,0,0,0-.11l3-2A.58.58,0,0,0,104,9.67Zm-5.09,4.69a.38.38,0,0,0-.2.1l-2.14-2.1a.55.55,0,0,0,.13-.36l3.21-.21v0a.5.5,0,0,0,.23.3l-1,2.27A.37.37,0,0,0,98.94,14.36Zm-3.32-2.24a.87.87,0,0,0,.07.17l-3.2,2.28a.29.29,0,0,0-.15-.09l.53-3.32H93a.31.31,0,0,0,.23-.18l2.45.87A.62.62,0,0,0,95.62,12.12Zm-7.37,6.39a.31.31,0,0,0-.34-.22l-.34-1.59a.4.4,0,0,0,.18-.13l2.44,1.25a.57.57,0,0,0,0,.29Zm2.44-1-.36-3.71h0a.56.56,0,0,0,.3-.17l1.3,1a.35.35,0,0,0,0,.25.36.36,0,0,0,.15.21l-1.16,2.43A.54.54,0,0,0,90.69,17.47Zm2.1-6.32-.53,3.32h-.08a.28.28,0,0,0-.16.09l-1.32-1a.54.54,0,0,0,.09-.43.5.5,0,0,0,0-.13l2-1.82Zm-2.54,2.62.36,3.71h0a.63.63,0,0,0-.37.26L87.78,16.5a.4.4,0,0,0,0-.19.08.08,0,0,1,0,0L90,13.72A.49.49,0,0,0,90.25,13.77Zm-2.79,2.94h0l.33,1.59a.34.34,0,0,0-.22.39.32.32,0,0,0,.17.22l-.69,1.77h-.16a.32.32,0,0,0-.2.14l-.86-.45a.56.56,0,0,0,0-.34.46.46,0,0,0-.15-.27Zm-.28,3.95.67-1.72A.42.42,0,0,0,88,19a.35.35,0,0,0,.26-.36l1.9-.4s0,0,0,.06ZM91,17.55l1.16-2.44a.37.37,0,0,0,.18,0,.34.34,0,0,0,.26-.4.25.25,0,0,0,0-.09l3.2-2.28a.66.66,0,0,0,.23.17l-.91,2.91a.49.49,0,0,0-.24,0,.55.55,0,0,0-.44.64l-3.26,1.58Zm8.26-3.14,1-2.28a.45.45,0,0,0,.23,0,.39.39,0,0,0,.19-.1l1.52,1.57A.58.58,0,0,0,102,14l-2.64.58A.36.36,0,0,0,99.24,14.41Zm16.54-2,.38-3.26h.06a.35.35,0,0,0,.15-.07l2.39,2.24a.42.42,0,0,0-.09.36s0,0,0,0l-2.5,1A.56.56,0,0,0,115.78,12.4Zm5.72-2.14.85,1.83a.2.2,0,0,0,0,.09l-2.75-.55a.33.33,0,0,0,0-.14.46.46,0,0,0-.07-.16L121,10.09A.57.57,0,0,0,121.5,10.26Zm-2,1.45,2.75.55v.1a.36.36,0,0,0,.13.19l-.17,1.14a.34.34,0,0,0-.22.37l-1.84.51a.44.44,0,0,0-.46-.28L119.24,12A.44.44,0,0,0,119.53,11.71ZM103.7,4.12a.41.41,0,0,0,0,.22.56.56,0,0,0,.66.44.57.57,0,0,0,.43-.42l2.28-.09a.32.32,0,0,0,.35.15.3.3,0,0,0,.23-.19l2.41-.15a.58.58,0,0,0,.64.37.56.56,0,0,0,.39-.31l3.13.54h0a.45.45,0,0,0,.53.35.49.49,0,0,0,.19-.1l3.16,1.8a.49.49,0,0,0,0,.24.56.56,0,0,0,.66.44.39.39,0,0,0,.15-.06l2,2.08a.52.52,0,0,0-.07.39.72.72,0,0,0,.09.2l-1.53,1.25a.46.46,0,0,0-.41-.14.43.43,0,0,0-.2.11L116.42,9a.29.29,0,0,0,.06-.27.32.32,0,0,0-.39-.26.33.33,0,0,0-.26.4.32.32,0,0,0,.25.26l-.38,3.25h-.14a.5.5,0,0,0-.21.09L113,9.56a.57.57,0,0,0,.17-.53.56.56,0,0,0-.67-.43.55.55,0,0,0-.34.23l-3-1.76a.45.45,0,0,0,0-.28.46.46,0,0,0-.54-.35.44.44,0,0,0-.34.53.15.15,0,0,0,0,.07l-3.55,1.82a.57.57,0,0,0-.6-.26.61.61,0,0,0-.23.11l-2.34-2.55a.44.44,0,0,0,.11-.39.45.45,0,0,0-.53-.35.45.45,0,0,0-.35.53.46.46,0,0,0,.54.35.76.76,0,0,0,.18-.09l2.33,2.55a.57.57,0,0,0-.14.5.44.44,0,0,0,.06.16l-3,2a.43.43,0,0,0-.44-.16l-.06,0L99.16,9.09a.34.34,0,1,0-.51-.21.28.28,0,0,0,.08.15l-2.22,2.53a.55.55,0,0,0-.45-.11.56.56,0,0,0-.4.33l-2.45-.87a.38.38,0,0,0,0-.15h0l2.28-2a.56.56,0,0,0,.42.08.57.57,0,0,0,.43-.67A.76.76,0,0,0,96.28,8l1.3-1.37a.58.58,0,0,0,.37,0A.56.56,0,0,0,98.39,6a.55.55,0,0,0-.34-.4l.12-1.22a.36.36,0,0,0,.2-.38.35.35,0,0,0-.4-.26L97,2.5a.14.14,0,0,0,0-.06h3a.56.56,0,0,0,.65.39.64.64,0,0,0,.29-.16ZM79.45,23a.29.29,0,0,0,.16,0,.37.37,0,0,0,.14-.07l.91.86,0,.1-2.47.51Zm7.24,1.24a.57.57,0,0,0-.32.2l-2-.82a.41.41,0,0,0,0-.11.14.14,0,0,0,0-.06l1.22-.59A.32.32,0,0,0,86,23a.33.33,0,0,0,.26-.27l1.19.09v.05a.31.31,0,0,0,.06.13l-.57,1.23Zm29.54-11.39s0,0,0-.05l2.51-1a.42.42,0,0,0,.44.24l.48,2.29a.42.42,0,0,0-.18.11L116.23,13A.61.61,0,0,0,116.23,12.83Z"/></svg>