<svg id="Calque_1" data-name="Calque 1" xmlns="http://www.w3.org/2000/svg" viewBox="0 0 51 51"><defs><style>.cls-1{fill:#282658;}</style></defs><title>Plan de travail 3 copie 4</title><path class="cls-1" d="M29.52,42.89a14.57,14.57,0,0,0-1-1,7.09,7.09,0,0,0-1.67-1.08,12.13,12.13,0,0,0-2.44-.85,13.66,13.66,0,0,0-3.23-.35,8.94,8.94,0,0,0-2.59.31,4.27,4.27,0,0,0-1.61.82,2.91,2.91,0,0,0-.82,1.18,3.69,3.69,0,0,0-.24,1.3,3,3,0,0,0,.93,2.15,6.87,6.87,0,0,0,3.33,1.46l3.69.82a26,26,0,0,1,3.87,1.17,11.43,11.43,0,0,1,3,1.72A7.06,7.06,0,0,1,32.59,53a7.86,7.86,0,0,1,.67,3.39,10.7,10.7,0,0,1-.69,3.93,7.79,7.79,0,0,1-2.16,3,10.06,10.06,0,0,1-3.73,2,18.45,18.45,0,0,1-5.41.7,23.84,23.84,0,0,1-5.17-.5,21.74,21.74,0,0,1-3.74-1.15A15.1,15.1,0,0,1,10,63.07c-.58-.39-.94-.64-1.09-.76l3-4.52a7.36,7.36,0,0,0,.89.69,11.33,11.33,0,0,0,1.91,1.09,16.85,16.85,0,0,0,2.89,1,14.29,14.29,0,0,0,3.78.46,10.23,10.23,0,0,0,2.85-.33,4.55,4.55,0,0,0,1.71-.84,2.8,2.8,0,0,0,.85-1.22A4.34,4.34,0,0,0,27,57.23a3.08,3.08,0,0,0-1.33-2.63,9.21,9.21,0,0,0-3.71-1.46l-4.09-.83a15.45,15.45,0,0,1-2.93-.91,9.5,9.5,0,0,1-2.63-1.63,7.86,7.86,0,0,1-1.89-2.47,7.63,7.63,0,0,1-.71-3.42,9.37,9.37,0,0,1,.69-3.62,8,8,0,0,1,2.11-2.94,9.92,9.92,0,0,1,3.56-2,15.87,15.87,0,0,1,5-.72,25.15,25.15,0,0,1,3.74.24,22.33,22.33,0,0,1,2.67.56,9.82,9.82,0,0,1,1.78.68c.45.23.79.42,1,.56a4,4,0,0,1,1.28,1.26A2.68,2.68,0,0,1,32,39.37a2.85,2.85,0,0,1-.3,1.32,5.72,5.72,0,0,1-.7,1,4.18,4.18,0,0,1-.8.74A6.44,6.44,0,0,1,29.52,42.89Z"/><path class="cls-1" d="M39.78,38.15A2.46,2.46,0,0,1,40.67,36a4.1,4.1,0,0,1,2.41-.63,6.35,6.35,0,0,1,1.93.26c.57.17.92.29,1.07.35V65.22h-6.3Z"/><path class="cls-1" d="M135.38,3a.91.91,0,0,0-1-.71L133.1-.74a.93.93,0,0,0,.19-.76.92.92,0,0,0-.35-.54l.48-3.13a.9.9,0,0,0,.59-1,.89.89,0,0,0-.84-.71l-2.31-5a1.51,1.51,0,0,0,.5-1.47,1.55,1.55,0,0,0-1.83-1.19,1.34,1.34,0,0,0-.39.16l-5.56-5.69a1.48,1.48,0,0,0,.17-1.06,1.53,1.53,0,0,0-1.82-1.19,1.48,1.48,0,0,0-.75.4l-8.65-4.93a1.36,1.36,0,0,0,0-.45,1.24,1.24,0,0,0-1.46-.95,1.22,1.22,0,0,0-.8.59l-8.59-1.47c0-.05,0-.1,0-.15a1.54,1.54,0,0,0-1.82-1.19,1.54,1.54,0,0,0-1.18,1.16l-6.6.41a.89.89,0,0,0-1-.42.89.89,0,0,0-.63.5l-6.24.27a1.53,1.53,0,0,0-1.77-1,1.41,1.41,0,0,0-.79.44l-7.7-4a1.4,1.4,0,0,0,0-.61A1.54,1.54,0,0,0,72.14-35,1.54,1.54,0,0,0,71-33.88H62.9a1.2,1.2,0,0,0-1.38-.77,1.22,1.22,0,0,0-1,1.45,1.23,1.23,0,0,0,1.46,1l.12-.06,2.77,3.4a.86.86,0,0,0-.07.53.9.9,0,0,0,.4.58l-.33,3.33h0a1.53,1.53,0,0,0-1.19,1.82,1.46,1.46,0,0,0,.18.45L60.3-18.43a1.54,1.54,0,0,0-1-.14,1.55,1.55,0,0,0-1.19,1.82,2,2,0,0,0,.12.34l-6.27,5.55a1,1,0,0,0-.5-.05.93.93,0,0,0-.71,1.1v0l-5.54,5A1.55,1.55,0,0,0,44.08-5a1.53,1.53,0,0,0-1.19,1.82,1.28,1.28,0,0,0,.21.51l-6.1,7a.77.77,0,0,0-.4,0,.94.94,0,0,0-.72,1.1,1.36,1.36,0,0,0,.13.3L31.34,14a1.47,1.47,0,0,0-.66,0,1.55,1.55,0,0,0-1.21,1.7l-7.26,3.17a1.53,1.53,0,0,0-2.7,1.16L15.63,21.7a.91.91,0,0,0-1.47.91l0,.09-3.76,4a1.19,1.19,0,0,0-.7-.09,1.23,1.23,0,0,0,.5,2.41,1.21,1.21,0,0,0,1-1l7-1.43a.93.93,0,0,0,.89.32.91.91,0,0,0,.66-.57l6.41-.84a1.21,1.21,0,0,0,1.32.63,1.23,1.23,0,0,0,.61-.37L33.45,28a2,2,0,0,0,0,.49A1.54,1.54,0,1,0,36,27.05l1.58-3.38h.13a.92.92,0,0,0,.72-1.09.94.94,0,0,0-.81-.72l-1.39-3.4a.88.88,0,0,0,.2-.75L44.78,11a1.53,1.53,0,0,0,2.39-1.51l8.94-4.33a1.54,1.54,0,0,0,2.68-1L67.5,1.6A1.21,1.21,0,0,0,69.68,1L76.91-.57A1.54,1.54,0,0,0,78.57.2a1.56,1.56,0,0,0,1.21-1.37l7.91-1.55a1,1,0,0,0,.9.32A.92.92,0,0,0,89.25-3l6.08-.93a1.33,1.33,0,0,0,.22.34L94.07-1.31a.76.76,0,0,0-.26,0A.92.92,0,0,0,93.1-.22v0L90.56,2a1.23,1.23,0,1,0-.16,2.35,1.2,1.2,0,0,0,.88-.79L97.34,4a.92.92,0,0,0,1,.52.9.9,0,0,0,.71-.79L105.91,1a.89.89,0,0,0,.77.21.91.91,0,0,0,.72-.93l5.65-3.37a1.54,1.54,0,0,0,1.37.38,1.56,1.56,0,0,0,.85-.52L124.12.62a1.07,1.07,0,0,0,0,.31,1.23,1.23,0,0,0,1.46,1,1.36,1.36,0,0,0,.39-.17l5.33,4.07a.91.91,0,0,0,0,.33.92.92,0,1,0,1.81-.38.75.75,0,0,0-.06-.13l1.27-1.47a1,1,0,0,0,.35,0A.92.92,0,0,0,135.38,3ZM132,5a1.22,1.22,0,0,0-.17.07L126.49,1a1.24,1.24,0,0,0,0-.58l5-1.41a.92.92,0,0,0,.75.56l1.36,3.23a.92.92,0,0,0-.09.59.67.67,0,0,0,.08.17L132.4,5A1,1,0,0,0,132,5ZM107-.47a.93.93,0,0,0-.55-.12l-1.13-5.35a.9.9,0,0,0,.61-1,.92.92,0,0,0-.72-.71l.44-5.38.34,0a1.5,1.5,0,0,0,.56-.25l6.53,8a1.55,1.55,0,0,0-.46,1.44.14.14,0,0,1,0,.06ZM98.75,2.88a.89.89,0,0,0-.63-.21l-1-5.75a1.57,1.57,0,0,0,1-.71l7.6,3.8a1.46,1.46,0,0,0,0,.2Zm-7.48-.2,0-.11L93.68.44a.88.88,0,0,0,.51.06.94.94,0,0,0,.72-1.1,1,1,0,0,0-.11-.24L96.28-3.1a1.5,1.5,0,0,0,.6.05l1,5.76a.86.86,0,0,0-.51.38ZM89.13-3.85a.93.93,0,0,0-.92-.36l-.11,0L83.55-13.3a1.48,1.48,0,0,0,.6-.64l7.39,3a.89.89,0,0,0,0,.43.92.92,0,0,0,1.09.72,1,1,0,0,0,.24-.11l2.9,4.15a1.5,1.5,0,0,0-.55,1ZM79.61-2a1.59,1.59,0,0,0-.76-.71l3.54-10.41a1.5,1.5,0,0,0,.7,0,1.07,1.07,0,0,0,.27-.09l4.53,9.13a.89.89,0,0,0-.36.49ZM58.54,3.3a1.5,1.5,0,0,0-.73-.61l2.49-8a1.47,1.47,0,0,0,.66,0,1.56,1.56,0,0,0,.7-.36L67.53.09a1.33,1.33,0,0,0-.27.67ZM36.61,22.6l-3.26-.23a.66.66,0,0,0,0-.14.92.92,0,0,0-1-.72L31.41,17a1.49,1.49,0,0,0,.89-.67l2.37,1.23a.88.88,0,0,0-.05.51.91.91,0,0,0,.8.72l1.39,3.4A.79.79,0,0,0,36.61,22.6Zm-17,2.89a1,1,0,0,0-.35-.28l1.36-3.86a1.58,1.58,0,0,0,.72,0,1.55,1.55,0,0,0,.8-.45l4,3.32a1.17,1.17,0,0,0-.18.41ZM16,22.5l3.88-1.65a1.49,1.49,0,0,0,.57.43l-1.35,3.85a1,1,0,0,0-.39,0,.92.92,0,0,0-.39.21L15.8,23A1,1,0,0,0,16,22.5Zm11,1.24a1.24,1.24,0,0,0-.61.35l-4-3.33a1.6,1.6,0,0,0,.27-1.08l7.26-3.17a1.53,1.53,0,0,0,1.38.54l.95,4.51a.92.92,0,0,0-.61,1.05,1,1,0,0,1,0,.1l-3.34,1.61A1.22,1.22,0,0,0,26.94,23.74ZM68.53-14.64l.1,0,2.93,6a1.21,1.21,0,0,0-.58,1L62.16-7a.34.34,0,0,0,0-.1,1.49,1.49,0,0,0-.41-.76l6.08-6.92A.92.92,0,0,0,68.53-14.64ZM105.72-.19,98.14-4a1.55,1.55,0,0,0,.09-.88l5.93-1.6a.91.91,0,0,0,.92.57L106.2-.54A1,1,0,0,0,105.72-.19ZM93.25-10.34,104.09-7a.94.94,0,0,0,0,.29l-5.92,1.6a1.55,1.55,0,0,0-1.77-1,1.78,1.78,0,0,0-.47.19L93-10A1,1,0,0,0,93.25-10.34ZM105-7.7h-.15a.91.91,0,0,0-.64.53L93.33-10.54a1.14,1.14,0,0,0,0-.32l10.87-3.22a1.56,1.56,0,0,0,1.21,1Zm-.83-6.6h0L93.25-11.07a.86.86,0,0,0-.51-.48l2-8.08a1.3,1.3,0,0,0,.44,0,1.25,1.25,0,0,0,.75-.5l8.32,4.84A1.58,1.58,0,0,0,104.13-14.3Zm-9.59-5.39-2,8.08a.81.81,0,0,0-.31,0,.93.93,0,0,0-.61.46l-7.39-3a1.49,1.49,0,0,0,0-.79,1.31,1.31,0,0,0-.09-.28l9.72-5A1.24,1.24,0,0,0,94.54-19.69ZM82.18-13.2,78.64-2.79a1.54,1.54,0,0,0-.71,0,1.64,1.64,0,0,0-.66.33L73.1-6.79a1.23,1.23,0,0,0,.29-1,1.15,1.15,0,0,0-.14-.32l8.31-5.52A1.53,1.53,0,0,0,82.18-13.2ZM68.22-.34a1.22,1.22,0,0,0-.54.28L61.81-5.8a1.5,1.5,0,0,0,.37-1l8.8-.6v.06a1.18,1.18,0,0,0,.62.81L68.86-.29A1.26,1.26,0,0,0,68.22-.34ZM59.14-6.48a1.48,1.48,0,0,0,.2.48L50.57.25A.85.85,0,0,0,50.15,0L51.6-9.1a.54.54,0,0,0,.22,0,.89.89,0,0,0,.63-.5l6.72,2.39A1.5,1.5,0,0,0,59.14-6.48ZM38.94,11a.92.92,0,0,0-.94-.62l-.92-4.35a1,1,0,0,0,.47-.35l6.69,3.41a1.58,1.58,0,0,0-.1.81ZM45.62,8.2,44.65-2h.06a1.54,1.54,0,0,0,.82-.47L49.11.38a.92.92,0,0,0-.12.67.94.94,0,0,0,.41.59L46.22,8.3A1.52,1.52,0,0,0,45.62,8.2ZM51.38-9.12,49.93,0a.54.54,0,0,0-.22,0,.88.88,0,0,0-.45.26l-3.6-2.84A1.51,1.51,0,0,0,45.9-3.8a2.06,2.06,0,0,0-.12-.35l5.55-5Zm-7,7.17,1,10.17h-.06a1.57,1.57,0,0,0-1,.71l-6.7-3.42a.86.86,0,0,0,0-.5s0-.08,0-.13l6.11-7A1.43,1.43,0,0,0,44.43-1.95ZM36.77,6.11h.1l.91,4.36a.92.92,0,0,0-.61,1,.88.88,0,0,0,.48.61L35.75,17a.85.85,0,0,0-.42,0,.91.91,0,0,0-.57.38L32.4,16.14a1.47,1.47,0,0,0,.1-.93,1.53,1.53,0,0,0-.41-.76ZM36,16.93l1.84-4.72a.84.84,0,0,0,.42,0,.9.9,0,0,0,.71-1l5.21-1.1a.84.84,0,0,0,.05.17ZM46.42,8.4l3.19-6.68a1,1,0,0,0,.48.05A.93.93,0,0,0,50.8.67a.66.66,0,0,0-.11-.24l8.77-6.25a1.61,1.61,0,0,0,.63.46l-2.49,8a1.67,1.67,0,0,0-.67,0,1.54,1.54,0,0,0-1.2,1.76L46.8,8.71A1.61,1.61,0,0,0,46.42,8.4ZM69.06-.2,71.8-6.43a1.25,1.25,0,0,0,.64,0A1.28,1.28,0,0,0,73-6.63l4.16,4.29a1.52,1.52,0,0,0-.39.92L69.5.19A1.17,1.17,0,0,0,69.06-.2Zm45.32-5.52,1-8.92h.18a.89.89,0,0,0,.4-.2l6.55,6.14a1.28,1.28,0,0,0-.25,1,.79.79,0,0,1,0,.09l-6.86,2.73A1.52,1.52,0,0,0,114.38-5.72Zm15.69-5.84,2.31,5a.84.84,0,0,0-.13.27l-7.53-1.52a1.22,1.22,0,0,0,0-.38,1.19,1.19,0,0,0-.18-.43l4.2-3.4A1.53,1.53,0,0,0,130.07-11.56Zm-5.4,4,7.53,1.51a1.13,1.13,0,0,0,0,.26.87.87,0,0,0,.35.54l-.48,3.13a.9.9,0,0,0-.6,1l-5,1.42a1.21,1.21,0,0,0-1.27-.78l-1.32-6.26A1.18,1.18,0,0,0,124.67-7.6ZM81.26-28.4a1.79,1.79,0,0,0,0,.61,1.54,1.54,0,0,0,1.82,1.19,1.52,1.52,0,0,0,1.17-1.14L90.5-28a.91.91,0,0,0,1,.43.9.9,0,0,0,.63-.52l6.6-.41a1.53,1.53,0,0,0,1.76,1,1.51,1.51,0,0,0,1.06-.83l8.59,1.48s0,0,0,0a1.22,1.22,0,0,0,1.45.95,1.16,1.16,0,0,0,.52-.26l8.66,4.93a1.51,1.51,0,0,0,0,.67,1.54,1.54,0,0,0,1.82,1.19,1.28,1.28,0,0,0,.4-.15l5.55,5.68a1.63,1.63,0,0,0-.17,1.07,1.5,1.5,0,0,0,.25.56l-4.21,3.41a1.22,1.22,0,0,0-1.12-.36,1.18,1.18,0,0,0-.56.3L116.15-15a1,1,0,0,0,.17-.73.94.94,0,0,0-1.1-.72.92.92,0,0,0-.71,1.1.9.9,0,0,0,.69.7l-1,8.91a1.29,1.29,0,0,0-.39,0,1.49,1.49,0,0,0-.56.24l-6.53-8a1.55,1.55,0,0,0,.46-1.44,1.56,1.56,0,0,0-1.83-1.19,1.54,1.54,0,0,0-.95.65L96-20.33a1.23,1.23,0,0,0,.11-.76A1.23,1.23,0,0,0,94.69-22a1.22,1.22,0,0,0-1,1.45.7.7,0,0,0,.08.2l-9.73,5a1.54,1.54,0,0,0-1.63-.72,1.47,1.47,0,0,0-.64.31l-6.41-7a1.22,1.22,0,0,0,.32-1.07,1.24,1.24,0,0,0-1.46-.95,1.23,1.23,0,0,0-1,1.46,1.23,1.23,0,0,0,1.45.95,1.17,1.17,0,0,0,.49-.23l6.4,7a1.53,1.53,0,0,0-.39,1.38,1.67,1.67,0,0,0,.17.44l-8.3,5.52a1.24,1.24,0,0,0-1.21-.45l-.17.08-2.93-6.06a.91.91,0,0,0,.41-1,.92.92,0,0,0-1.09-.72.94.94,0,0,0-.72,1.1.88.88,0,0,0,.23.41L61.57-8a1.5,1.5,0,0,0-1.24-.28,1.5,1.5,0,0,0-1.09.89L52.53-9.8a.85.85,0,0,0,0-.39v0l6.25-5.55a1.55,1.55,0,0,0,1.14.2,1.54,1.54,0,0,0,1.19-1.82,1.77,1.77,0,0,0-.18-.45l3.58-3.75a1.61,1.61,0,0,0,1,.14,1.54,1.54,0,0,0,1.19-1.82,1.54,1.54,0,0,0-.93-1.12l.32-3.35a.91.91,0,0,0,.55-1,.91.91,0,0,0-1.08-.71l-2.75-3.38A1.22,1.22,0,0,0,62.9-33H71a1.53,1.53,0,0,0,1.78,1.07,1.61,1.61,0,0,0,.8-.44ZM14.83,23.3a.83.83,0,0,0,.81-.18l2.5,2.36a1,1,0,0,0-.14.28l-6.76,1.38Zm19.83,3.39a1.55,1.55,0,0,0-.87.54L28.4,25a1.41,1.41,0,0,0,0-.29,1.3,1.3,0,0,0-.08-.17l3.35-1.61a.92.92,0,0,0,1.68-.32l3.26.23a.65.65,0,0,0,0,.14.92.92,0,0,0,.17.36l-1.57,3.36A2,2,0,0,0,34.66,26.69Zm81-31.21a1.31,1.31,0,0,1,0-.15l6.87-2.73a1.2,1.2,0,0,0,1.22.66L125-.48a1.21,1.21,0,0,0-.51.31L115.62-4A1.68,1.68,0,0,0,115.61-4.52Z"/></svg>