<svg id="Calque_1" data-name="Calque 1" xmlns="http://www.w3.org/2000/svg" viewBox="0 0 51 51"><defs><style>.cls-1{fill:#282658;}</style></defs><title>Plan de travail 3 copie 5</title><path class="cls-1" d="M10.33,36.41c.15.15.47.57,1,1.26s1.12,1.56,1.85,2.59l2.41,3.43c.88,1.26,1.77,2.57,2.67,3.91s1.77,2.68,2.63,4,1.61,2.49,2.28,3.56v-17A2.46,2.46,0,0,1,24,36a4.1,4.1,0,0,1,2.41-.63,6.21,6.21,0,0,1,1.89.26c.54.18.88.29,1,.35V65.22H23.19q-1.52-2.34-3.43-5.28c-1.27-1.95-2.55-3.88-3.82-5.77s-2.49-3.68-3.63-5.35-2.08-3-2.8-4V65.22H3.34V38.54a3.09,3.09,0,0,1,.86-2.15,3.31,3.31,0,0,1,1.13-.74,4.45,4.45,0,0,1,1.61-.28,5.27,5.27,0,0,1,2.17.37A8.88,8.88,0,0,1,10.33,36.41Z"/><path class="cls-1" d="M65.19,61.53c-.59-1.53-1.25-3.23-2-5.08s-1.49-3.78-2.3-5.76S59.3,46.79,58.5,45s-1.56-3.52-2.28-5-1.35-2.73-1.87-3.63a5.8,5.8,0,0,0-1.24-.82A5.56,5.56,0,0,0,50.53,35a5.21,5.21,0,0,0-2.83.74,6.4,6.4,0,0,0-2.13,2.78c-.29.58-.67,1.41-1.15,2.48s-1,2.31-1.63,3.71-1.27,3-2,4.63l-1,2.4a17.29,17.29,0,0,1-3.24-.13l-.31,0a6.15,6.15,0,0,1-2.44-1.35h0V56.7a7.57,7.57,0,0,0,2.11.5c.52.07,1.05.11,1.57.14l-1.06,2.58q-1.1,2.74-2.06,5.3h6.39l1-2.56L44,57c.82-.1,1.63-.22,2.44-.33,3.52-.51,6.88-1,10-.43l2.12,5.4.42,1c.42,1.06.75,1.91,1,2.54H66.6C66.26,64.3,65.78,63.07,65.19,61.53ZM46.37,51,47,49.47c.55-1.34,1-2.58,1.5-3.71s.84-2.1,1.17-2.91.58-1.37.72-1.66c.12.32.34.89.68,1.7l1.19,2.89c.46,1.11,1,2.35,1.5,3.69l.34.86A47.12,47.12,0,0,0,46.37,51Z"/><path class="cls-1" d="M84.38,3.05a.92.92,0,0,0-1-.72L82.1-.74a.93.93,0,0,0,.19-.76A.89.89,0,0,0,81.94-2l.48-3.13a.91.91,0,0,0,.59-1,.9.9,0,0,0-.84-.72l-2.31-5a1.53,1.53,0,0,0,.5-1.47,1.54,1.54,0,0,0-1.83-1.19,1.32,1.32,0,0,0-.39.15l-5.56-5.68a1.52,1.52,0,0,0,.17-1.07,1.54,1.54,0,0,0-1.82-1.19,1.56,1.56,0,0,0-.75.4L61.53-26.9a1.3,1.3,0,0,0,0-.44,1.23,1.23,0,0,0-1.46-.95,1.18,1.18,0,0,0-.8.58l-8.59-1.47c0-.05,0-.1,0-.15a1.54,1.54,0,0,0-1.82-1.19,1.54,1.54,0,0,0-1.18,1.17l-6.6.4a.91.91,0,0,0-1-.42.92.92,0,0,0-.63.5l-6.24.27a1.54,1.54,0,0,0-1.77-1,1.54,1.54,0,0,0-.79.44l-7.7-4a1.4,1.4,0,0,0,0-.61,1.53,1.53,0,0,0-1.82-1.19A1.53,1.53,0,0,0,20-33.88H11.9a1.21,1.21,0,0,0-1.38-.77,1.23,1.23,0,0,0-.95,1.46,1.23,1.23,0,0,0,1.46.95l.12,0,2.77,3.39a.88.88,0,0,0-.07.53.9.9,0,0,0,.4.58l-.33,3.34h0a1.53,1.53,0,0,0-1.19,1.82,1.37,1.37,0,0,0,.18.45L9.3-18.42a1.54,1.54,0,0,0-1-.15,1.56,1.56,0,0,0-1.19,1.83,1.61,1.61,0,0,0,.12.33L.94-10.85a.84.84,0,0,0-.5-.05A.92.92,0,0,0-.27-9.81v0l-5.54,5A1.55,1.55,0,0,0-6.92-5,1.54,1.54,0,0,0-8.11-3.16a1.3,1.3,0,0,0,.21.5l-6.1,7a.9.9,0,0,0-.4,0,.92.92,0,0,0-.72,1.09,1.36,1.36,0,0,0,.13.3L-19.66,14a1.83,1.83,0,0,0-.66,0,1.55,1.55,0,0,0-1.21,1.7l-7.26,3.17a1.53,1.53,0,0,0-1.49-.52,1.54,1.54,0,0,0-1.21,1.68l-3.88,1.66a.9.9,0,0,0-.76-.19.91.91,0,0,0-.71,1.09s0,.06,0,.1l-3.76,4a1.19,1.19,0,0,0-.7-.08,1.23,1.23,0,0,0-1,1.46,1.23,1.23,0,0,0,1.45.95,1.22,1.22,0,0,0,1-1l7-1.42a.93.93,0,0,0,.89.32.92.92,0,0,0,.66-.58l6.41-.84a1.2,1.2,0,0,0,1.32.63,1.1,1.1,0,0,0,.61-.37L-17.55,28a1.93,1.93,0,0,0,0,.48,1.54,1.54,0,0,0,1.82,1.19,1.53,1.53,0,0,0,1.19-1.82,1.5,1.5,0,0,0-.49-.83l1.58-3.38a.57.57,0,0,0,.13,0,.94.94,0,0,0,.72-1.1.91.91,0,0,0-.81-.71l-1.39-3.41a.87.87,0,0,0,.2-.75L-6.22,11a1.48,1.48,0,0,0,1.2.25A1.52,1.52,0,0,0-3.83,9.49L5.11,5.15a1.52,1.52,0,0,0,1.45.48,1.55,1.55,0,0,0,1.23-1.5L16.5,1.6A1.21,1.21,0,0,0,18.68,1l7.23-1.6A1.55,1.55,0,0,0,27.57.2a1.55,1.55,0,0,0,1.21-1.36l7.91-1.56a.9.9,0,0,0,.9.32A.9.9,0,0,0,38.25-3l6.08-.92a1.79,1.79,0,0,0,.22.34L43.07-1.31a2.25,2.25,0,0,0-.26,0,.92.92,0,0,0-.71,1.1h0L39.56,2a1.14,1.14,0,0,0-.66-.07,1.23,1.23,0,1,0,.5,2.41,1.2,1.2,0,0,0,.88-.78l6.06.4a.9.9,0,0,0,1.73-.27L54.91,1a.89.89,0,0,0,.77.22A.92.92,0,0,0,56.4.29l5.65-3.37a1.54,1.54,0,0,0,1.37.38,1.45,1.45,0,0,0,.85-.52L73.12.62a1.14,1.14,0,0,0,0,.32,1.23,1.23,0,0,0,1.46,1A1.13,1.13,0,0,0,75,1.72L80.3,5.79a1,1,0,0,0,0,.34.92.92,0,0,0,1.81-.38.52.52,0,0,0-.06-.13l1.27-1.48a.83.83,0,0,0,.35,0A.91.91,0,0,0,84.38,3.05ZM81,5l-.17.08L75.49,1a1.26,1.26,0,0,0,0-.58l5-1.42a.88.88,0,0,0,.75.56l1.36,3.23a1,1,0,0,0-.09.6,1.3,1.3,0,0,0,.08.17L81.4,5A.85.85,0,0,0,81,5ZM56-.46a.86.86,0,0,0-.55-.12L54.29-5.93A.92.92,0,0,0,54.9-7a.93.93,0,0,0-.72-.72l.44-5.38.34,0a1.36,1.36,0,0,0,.56-.25l6.53,8a1.53,1.53,0,0,0-.46,1.43.14.14,0,0,1,0,.07ZM47.75,2.89a.85.85,0,0,0-.63-.21l-1-5.76a1.52,1.52,0,0,0,.95-.7L54.64,0a1.05,1.05,0,0,0,0,.19Zm-7.48-.2-.05-.12L42.68.45a.88.88,0,0,0,.51,0,.92.92,0,0,0,.72-1.09.88.88,0,0,0-.11-.24L45.28-3.1a1.5,1.5,0,0,0,.6.06l1,5.75a.9.9,0,0,0-.51.38ZM38.13-3.85a.9.9,0,0,0-.92-.35.36.36,0,0,0-.11,0L32.55-13.3a1.43,1.43,0,0,0,.6-.64l7.39,3a.88.88,0,0,0,0,.43.91.91,0,0,0,1.09.71,1,1,0,0,0,.24-.1l2.9,4.14a1.55,1.55,0,0,0-.55,1ZM28.61-2a1.52,1.52,0,0,0-.76-.7l3.54-10.41a1.5,1.5,0,0,0,.7,0l.27-.08,4.53,9.12a1,1,0,0,0-.36.5ZM7.54,3.3a1.5,1.5,0,0,0-.73-.61l2.49-8a1.47,1.47,0,0,0,.66,0,1.39,1.39,0,0,0,.7-.36L16.53.1a1.29,1.29,0,0,0-.27.67ZM-14.39,22.6l-3.26-.22a.75.75,0,0,0,0-.15.92.92,0,0,0-1-.71L-19.59,17a1.45,1.45,0,0,0,.89-.67l2.37,1.24a.87.87,0,0,0-.05.51.89.89,0,0,0,.8.71l1.39,3.41A.8.8,0,0,0-14.39,22.6Zm-17,2.9a.8.8,0,0,0-.35-.28l1.36-3.86a1.46,1.46,0,0,0,.72,0,1.47,1.47,0,0,0,.8-.44l4,3.31a1.35,1.35,0,0,0-.18.41Zm-3.65-3,3.88-1.66a1.62,1.62,0,0,0,.57.44l-1.35,3.84a1,1,0,0,0-.39,0,.91.91,0,0,0-.39.2L-35.2,23A1.07,1.07,0,0,0-35,22.51Zm11,1.23a1.19,1.19,0,0,0-.61.36l-4-3.33a1.63,1.63,0,0,0,.27-1.08l7.26-3.17a1.55,1.55,0,0,0,1.38.53l.95,4.51a.92.92,0,0,0-.61,1.05,1,1,0,0,0,0,.1l-3.34,1.61A1.22,1.22,0,0,0-24.06,23.74ZM17.53-14.64s.07,0,.1,0l2.93,6.06a1.18,1.18,0,0,0-.58,1L11.16-7a.41.41,0,0,0,0-.11,1.49,1.49,0,0,0-.41-.76l6.08-6.91A.88.88,0,0,0,17.53-14.64ZM54.72-.18,47.14-4a1.54,1.54,0,0,0,.09-.88l5.93-1.59a.89.89,0,0,0,.92.56L55.2-.54A.92.92,0,0,0,54.72-.18ZM42.25-10.33,53.09-7a1,1,0,0,0,0,.3L47.17-5.07a1.54,1.54,0,0,0-1.77-1,1.29,1.29,0,0,0-.47.19L42-10A.84.84,0,0,0,42.25-10.33ZM54-7.7h-.15a.94.94,0,0,0-.64.54L42.33-10.53a1.22,1.22,0,0,0,0-.33L53.2-14.08a1.54,1.54,0,0,0,1.21,1Zm-.83-6.6v0L42.25-11.06a.91.91,0,0,0-.51-.49l2-8.08a1.09,1.09,0,0,0,.44,0,1.21,1.21,0,0,0,.75-.5l8.32,4.84A1.59,1.59,0,0,0,53.13-14.3Zm-9.59-5.39-2,8.08a1.07,1.07,0,0,0-.31,0,.94.94,0,0,0-.61.47l-7.39-3a1.51,1.51,0,0,0,.05-.79,1.4,1.4,0,0,0-.09-.29l9.72-5A1.23,1.23,0,0,0,43.54-19.69ZM31.18-13.2,27.64-2.79a1.54,1.54,0,0,0-.71,0,1.42,1.42,0,0,0-.66.33L22.1-6.79a1.21,1.21,0,0,0,.29-1,1.36,1.36,0,0,0-.14-.33l8.31-5.52A1.53,1.53,0,0,0,31.18-13.2ZM17.22-.34a1.22,1.22,0,0,0-.54.28L10.81-5.8a1.48,1.48,0,0,0,.37-1l8.8-.6v.07a1.22,1.22,0,0,0,.62.81L17.86-.28A1.16,1.16,0,0,0,17.22-.34ZM8.14-6.48a1.63,1.63,0,0,0,.2.49L-.43.25A1,1,0,0,0-.85,0L.6-9.09H.82a.92.92,0,0,0,.63-.5L8.17-7.2A1.46,1.46,0,0,0,8.14-6.48ZM-12.06,11a.9.9,0,0,0-.94-.61l-.92-4.36a.92.92,0,0,0,.47-.35l6.69,3.42a1.53,1.53,0,0,0-.1.8ZM-5.38,8.2-6.35-2h.06a1.49,1.49,0,0,0,.82-.48L-1.89.39A.91.91,0,0,0-2,1.06a.92.92,0,0,0,.41.58L-4.78,8.31A1.52,1.52,0,0,0-5.38,8.2ZM.38-9.12-1.07,0a1.62,1.62,0,0,0-.22,0,.88.88,0,0,0-.45.26l-3.6-2.83A1.54,1.54,0,0,0-5.1-3.8a2,2,0,0,0-.12-.34l5.55-5ZM-6.57-1.94l1,10.16h-.06a1.57,1.57,0,0,0-1,.71l-6.7-3.42a.84.84,0,0,0,0-.5s0-.08,0-.12l6.11-7A1.57,1.57,0,0,0-6.57-1.94Zm-7.66,8.06h.1l.91,4.35a.92.92,0,0,0-.61,1,.92.92,0,0,0,.48.62L-15.25,17a.85.85,0,0,0-.42,0,.93.93,0,0,0-.57.39l-2.36-1.23a1.47,1.47,0,0,0,.1-.93,1.5,1.5,0,0,0-.41-.75ZM-15,16.94l1.84-4.72a1,1,0,0,0,.42,0,.92.92,0,0,0,.71-1l5.21-1.09a1,1,0,0,0,0,.16ZM-4.58,8.4l3.19-6.67a1,1,0,0,0,.48,0A.93.93,0,0,0-.2.68.71.71,0,0,0-.31.43L8.46-5.82a1.43,1.43,0,0,0,.63.46l-2.49,8a1.51,1.51,0,0,0-.67,0,1.54,1.54,0,0,0-1.2,1.76L-4.2,8.71A1.91,1.91,0,0,0-4.58,8.4ZM18.06-.2,20.8-6.43a1.25,1.25,0,0,0,.64.06A1.18,1.18,0,0,0,22-6.63l4.16,4.3a1.48,1.48,0,0,0-.39.92L18.5.19A1.27,1.27,0,0,0,18.06-.2ZM63.38-5.72l1-8.91a.55.55,0,0,0,.18,0,.89.89,0,0,0,.4-.2l6.55,6.15a1.25,1.25,0,0,0-.25,1l0,.09L64.48-4.87A1.54,1.54,0,0,0,63.38-5.72Zm15.69-5.84,2.31,5a.91.91,0,0,0-.13.26L73.72-7.81a1.28,1.28,0,0,0,0-.39,1.27,1.27,0,0,0-.18-.43l4.2-3.4A1.5,1.5,0,0,0,79.07-11.56Zm-5.4,4L81.2-6.09a1.22,1.22,0,0,0,0,.27.88.88,0,0,0,.35.53l-.48,3.13a.91.91,0,0,0-.6,1l-5,1.42a1.19,1.19,0,0,0-1.27-.77L72.86-6.78A1.21,1.21,0,0,0,73.67-7.6ZM30.26-28.4a1.79,1.79,0,0,0,0,.61,1.53,1.53,0,0,0,1.82,1.19,1.51,1.51,0,0,0,1.17-1.13L39.5-28a.93.93,0,0,0,1,.44.92.92,0,0,0,.63-.52l6.6-.41a1.54,1.54,0,0,0,1.76,1,1.51,1.51,0,0,0,1.06-.83l8.59,1.47s0,0,0,0a1.23,1.23,0,0,0,1.45,1,1.29,1.29,0,0,0,.52-.27l8.66,4.94a1.51,1.51,0,0,0,0,.67,1.55,1.55,0,0,0,1.82,1.19,1.59,1.59,0,0,0,.4-.16l5.55,5.69a1.59,1.59,0,0,0-.17,1.06,1.63,1.63,0,0,0,.25.57l-4.21,3.4a1.22,1.22,0,0,0-1.12-.36,1.27,1.27,0,0,0-.56.3L65.15-15a.93.93,0,0,0,.17-.73.92.92,0,0,0-1.1-.71.91.91,0,0,0-.71,1.09.9.9,0,0,0,.69.7l-1,8.91a1.71,1.71,0,0,0-.39,0,1.36,1.36,0,0,0-.56.25l-6.53-8a1.53,1.53,0,0,0,.46-1.43,1.55,1.55,0,0,0-1.83-1.19,1.49,1.49,0,0,0-1,.64L45-20.32a1.27,1.27,0,0,0,.11-.77A1.24,1.24,0,0,0,43.69-22a1.23,1.23,0,0,0-.95,1.46.84.84,0,0,0,.08.2l-9.73,5a1.54,1.54,0,0,0-1.63-.71,1.58,1.58,0,0,0-.64.3l-6.41-7a1.2,1.2,0,0,0,.32-1.06,1.24,1.24,0,0,0-1.46-1,1.23,1.23,0,0,0-.95,1.46,1.22,1.22,0,0,0,1.45.95,1.06,1.06,0,0,0,.49-.23l6.4,7a1.51,1.51,0,0,0-.39,1.37,1.55,1.55,0,0,0,.17.44l-8.3,5.52a1.23,1.23,0,0,0-1.21-.44,1.22,1.22,0,0,0-.17.07l-2.93-6.06a.9.9,0,0,0,.41-1,.91.91,0,0,0-1.09-.71.92.92,0,0,0-.72,1.09.91.91,0,0,0,.23.42L10.57-8A1.55,1.55,0,0,0,9.33-8.3a1.53,1.53,0,0,0-1.09.89L1.53-9.79a.9.9,0,0,0,0-.4s0,0,0,0l6.25-5.55a1.55,1.55,0,0,0,1.14.21,1.55,1.55,0,0,0,1.19-1.83,1.57,1.57,0,0,0-.18-.44l3.58-3.76a1.49,1.49,0,0,0,1,.14,1.53,1.53,0,0,0,1.19-1.82,1.53,1.53,0,0,0-.93-1.11l.32-3.35a.92.92,0,0,0,.55-1,.91.91,0,0,0-1.08-.71l-2.75-3.37A1.34,1.34,0,0,0,11.9-33H20a1.52,1.52,0,0,0,1.78,1.07,1.47,1.47,0,0,0,.8-.44ZM-36.17,23.3a.75.75,0,0,0,.42,0,.77.77,0,0,0,.39-.2l2.5,2.37a.82.82,0,0,0-.14.28l-6.76,1.38Zm19.83,3.4a1.45,1.45,0,0,0-.87.54L-22.6,25a1.41,1.41,0,0,0,0-.29,1.3,1.3,0,0,0-.08-.17l3.35-1.61a.9.9,0,0,0,1,.41.91.91,0,0,0,.72-.73l3.26.23a.66.66,0,0,0,0,.14.86.86,0,0,0,.17.36l-1.57,3.37A1.46,1.46,0,0,0-16.34,26.7Zm81-31.22a.88.88,0,0,1,0-.15L71.43-7.4a1.2,1.2,0,0,0,1.22.66L74-.48a1.14,1.14,0,0,0-.51.32L64.62-4A1.68,1.68,0,0,0,64.61-4.52Z"/></svg>